<?xml version="1.0" encoding="UTF-8"?>
<svg id="Calque_2" data-name="Calque 2" xmlns="http://www.w3.org/2000/svg" viewBox="0 0 698.18 236.5">
  <defs>
    <style>
      .cls-1 {
        fill: #fff;
        stroke-width: 0px;
      }
    </style>
  </defs>
  <g id="Calque_1-2" data-name="Calque 1">
    <polygon class="cls-1" points="131.28 134.34 59.43 117.64 131.28 101.92 203.05 117.64 131.28 134.34"/>
    <path class="cls-1" d="m698.18,236.5l-38.86-.76-68.23-68.23h-151.76l-27.68-26.93h152.52l-110.62-110.62c-1.57-1.56-3.65-2.43-5.87-2.43s-4.3.87-5.87,2.43l-87.77,87.78,121.06,117.76h-38.27l-101.83-98.73-6.34,6.33-74.01,74.01c-5.85,5.86-12.71,10.44-20.37,13.61-7.64,3.18-15.72,4.78-24.02,4.78h-88.5c-1.19.05-2.45.07-3.97.07-31.54,0-61.17-12.3-83.43-34.63C12.1,178.6-.11,148.93,0,117.39.22,52.66,53.6,0,119.01,0h43.39l26.93,26.93h-56.24c-58.53,0-99.84,40.76-99.84,90.86s41.82,90.86,99.84,90.86c1.31,0,2.38-.02,3.38-.07h66.77c14.11,0,27.36-5.49,37.31-15.45l75.35-75.34L228.75,30.64,198.1,0h38.09l92.48,92.47,6.28,6.27,6.27-6.27L427.71,5.98c3.86-3.86,8.99-5.98,14.45-5.98h10.52c5.8,0,11.25,2.26,15.35,6.36l230.15,230.14Z"/>
  </g>
</svg>
