<?xml version="1.0" encoding="UTF-8"?>
<svg id="Calque_2" data-name="Calque 2" xmlns="http://www.w3.org/2000/svg" xmlns:xlink="http://www.w3.org/1999/xlink" viewBox="0 0 1897.45 5298.31">
  <defs>
    <style>
      .cls-1 {
        fill: none;
      }

      .cls-1, .cls-2, .cls-3 {
        stroke-width: 0px;
      }

      .cls-2 {
        fill: #0b0c0c;
      }

      .cls-3 {
        fill: url(#Nouveau_motif_3);
      }
    </style>
    <pattern id="Nouveau_motif_3" data-name="Nouveau motif 3" x="0" y="0" width="86.23" height="129.22" patternTransform="translate(-3969.86 1806.58)" patternUnits="userSpaceOnUse" viewBox="0 0 86.23 129.22">
      <g>
        <rect class="cls-1" y="0" width="86.23" height="129.22"/>
        <g>
          <path class="cls-2" d="M93.33,107.33l-1.39,1.39c-.32.32-.85.32-1.17,0l-10.44-10.44c-.32-.32-.32-.85,0-1.17l8.88-8.88c.32-.32.85-.32,1.17,0l6.62,6.62c.32.32.32.85,0,1.17l-1.39,1.39c-.32.32-.85.32-1.17,0l-4.63-4.63c-.32-.32-.85-.32-1.17,0l-.03.03c-.32.32-.32.85,0,1.17l2.37,2.37c.32.32.32.85,0,1.17l-1.39,1.39c-.32.32-.85.32-1.17,0l-2.37-2.37c-.32-.32-.85-.32-1.17,0h0c-.32.32-.32.85,0,1.17l8.45,8.45c.32.32.32.85,0,1.17Z"/>
          <path class="cls-2" d="M85.48,109.39l1.39-1.39c.32-.32.85-.32,1.17,0l10.44,10.44c.32.32.32.85,0,1.17l-8.88,8.88c-.32.32-.85.32-1.17,0l-6.62-6.62c-.32-.32-.32-.85,0-1.17l1.39-1.39c.32-.32.85-.32,1.17,0l4.63,4.63c.32.32.85.32,1.17,0l.03-.03c.32-.32.32-.85,0-1.17l-2.37-2.37c-.32-.32-.32-.85,0-1.17l1.39-1.39c.32-.32.85-.32,1.17,0l2.37,2.37c.32.32.85.32,1.17,0h0c.32-.32.32-.85,0-1.17l-8.45-8.45c-.32-.32-.32-.85,0-1.17Z"/>
          <path class="cls-2" d="M69.24,108.2l8.89-8.89c.32-.32.85-.32,1.17,0l6.61,6.61c.32.32.32.85,0,1.17l-1.4,1.4c-.32.32-.85.32-1.17,0l-4.62-4.62c-.32-.32-.85-.32-1.17,0l-.03.03c-.32.32-.32.85,0,1.17l7.54,7.54c.32.32.32.85,0,1.17l-1.98,1.98h0s-3.15,3.14-3.15,3.14c-.32.32-.85.32-1.17,0l-1.39-1.39c-.32-.32-.32-.85,0-1.17l2.56-2.56c.32-.32.32-.85,0-1.17l-4.98-4.98c-.32-.32-.85-.32-1.17,0h0c-.32.32-.32.85,0,1.17l.55.55c.32.32.32.85,0,1.17l-1.39,1.39c-.32.32-.85.32-1.17,0l-2.53-2.53c-.32-.32-.32-.85,0-1.17Z"/>
          <path class="cls-2" d="M70.28,130.38l-1.39,1.39c-.32.32-.85.32-1.17,0l-10.44-10.44c-.32-.32-.32-.85,0-1.17l8.88-8.88c.32-.32.85-.32,1.17,0l6.62,6.62c.32.32.32.85,0,1.17l-1.39,1.39c-.32.32-.85.32-1.17,0l-4.63-4.63c-.32-.32-.85-.32-1.17,0l-.03.03c-.32.32-.32.85,0,1.17l2.37,2.37c.32.32.32.85,0,1.17l-1.39,1.39c-.32.32-.85.32-1.17,0l-2.37-2.37c-.32-.32-.85-.32-1.17,0h0c-.32.32-.32.85,0,1.17l8.45,8.45c.32.32.32.85,0,1.17Z"/>
          <path class="cls-2" d="M86.52,131.57l-8.89,8.89c-.32.32-.85.32-1.17,0l-6.61-6.61c-.32-.32-.32-.85,0-1.17l1.4-1.4c.32-.32.85-.32,1.17,0l4.62,4.62c.32.32.85.32,1.17,0l.03-.03c.32-.32.32-.85,0-1.17l-7.54-7.54c-.32-.32-.32-.85,0-1.17l1.98-1.98h0s3.15-3.14,3.15-3.14c.32-.32.85-.32,1.17,0l1.39,1.39c.32.32.32.85,0,1.17l-2.56,2.56c-.32.32-.32.85,0,1.17l4.98,4.98c.32.32.85.32,1.17,0h0c.32-.32.32-.85,0-1.17l-.55-.55c-.32-.32-.32-.85,0-1.17l1.39-1.39c.32-.32.85-.32,1.17,0l2.53,2.53c.32.32.32.85,0,1.17Z"/>
          <path class="cls-2" d="M46.19,131.25l8.89-8.89c.32-.32.85-.32,1.17,0l6.61,6.61c.32.32.32.85,0,1.17l-1.4,1.4c-.32.32-.85.32-1.17,0l-4.62-4.62c-.32-.32-.85-.32-1.17,0l-.03.03c-.32.32-.32.85,0,1.17l7.54,7.54c.32.32.32.85,0,1.17l-1.98,1.98h0s-3.15,3.14-3.15,3.14c-.32.32-.85.32-1.17,0l-1.39-1.39c-.32-.32-.32-.85,0-1.17l2.56-2.56c.32-.32.32-.85,0-1.17l-4.98-4.98c-.32-.32-.85-.32-1.17,0h0c-.32.32-.32.85,0,1.17l.55.55c.32.32.32.85,0,1.17l-1.39,1.39c-.32.32-.85.32-1.17,0l-2.53-2.53c-.32-.32-.32-.85,0-1.17Z"/>
        </g>
        <g>
          <path class="cls-2" d="M7.1,107.33l-1.39,1.39c-.32.32-.85.32-1.17,0l-10.44-10.44c-.32-.32-.32-.85,0-1.17l8.88-8.88c.32-.32.85-.32,1.17,0l6.62,6.62c.32.32.32.85,0,1.17l-1.39,1.39c-.32.32-.85.32-1.17,0l-4.63-4.63c-.32-.32-.85-.32-1.17,0l-.03.03c-.32.32-.32.85,0,1.17l2.37,2.37c.32.32.32.85,0,1.17l-1.39,1.39c-.32.32-.85.32-1.17,0l-2.37-2.37c-.32-.32-.85-.32-1.17,0h0c-.32.32-.32.85,0,1.17l8.45,8.45c.32.32.32.85,0,1.17Z"/>
          <path class="cls-2" d="M23.34,108.52l-8.89,8.89c-.32.32-.85.32-1.17,0l-6.61-6.61c-.32-.32-.32-.85,0-1.17l1.4-1.4c.32-.32.85-.32,1.17,0l4.62,4.62c.32.32.85.32,1.17,0l.03-.03c.32-.32.32-.85,0-1.17l-7.54-7.54c-.32-.32-.32-.85,0-1.17l1.98-1.98h0s3.15-3.14,3.15-3.14c.32-.32.85-.32,1.17,0l1.39,1.39c.32.32.32.85,0,1.17l-2.56,2.56c-.32.32-.32.85,0,1.17l4.98,4.98c.32.32.85.32,1.17,0h0c.32-.32.32-.85,0-1.17l-.55-.55c-.32-.32-.32-.85,0-1.17l1.39-1.39c.32-.32.85-.32,1.17,0l2.53,2.53c.32.32.32.85,0,1.17Z"/>
          <path class="cls-2" d="M-.75,109.39l1.39-1.39c.32-.32.85-.32,1.17,0l10.44,10.44c.32.32.32.85,0,1.17l-8.88,8.88c-.32.32-.85.32-1.17,0l-6.62-6.62c-.32-.32-.32-.85,0-1.17l1.39-1.39c.32-.32.85-.32,1.17,0l4.63,4.63c.32.32.85.32,1.17,0l.03-.03c.32-.32.32-.85,0-1.17l-2.37-2.37c-.32-.32-.32-.85,0-1.17l1.39-1.39c.32-.32.85-.32,1.17,0l2.37,2.37c.32.32.85.32,1.17,0h0c.32-.32.32-.85,0-1.17L-.75,110.56c-.32-.32-.32-.85,0-1.17Z"/>
          <path class="cls-2" d="M29.47,129.7l-1.39,1.39c-.32.32-.85.32-1.17,0l-10.44-10.44c-.32-.32-.32-.85,0-1.17l8.88-8.88c.32-.32.85-.32,1.17,0l6.62,6.62c.32.32.32.85,0,1.17l-1.39,1.39c-.32.32-.85.32-1.17,0l-4.63-4.63c-.32-.32-.85-.32-1.17,0l-.03.03c-.32.32-.32.85,0,1.17l2.37,2.37c.32.32.32.85,0,1.17l-1.39,1.39c-.32.32-.85.32-1.17,0l-2.37-2.37c-.32-.32-.85-.32-1.17,0h0c-.32.32-.32.85,0,1.17l8.45,8.45c.32.32.32.85,0,1.17Z"/>
          <path class="cls-2" d="M45.71,130.89l-8.89,8.89c-.32.32-.85.32-1.17,0l-6.61-6.61c-.32-.32-.32-.85,0-1.17l1.4-1.4c.32-.32.85-.32,1.17,0l4.62,4.62c.32.32.85.32,1.17,0l.03-.03c.32-.32.32-.85,0-1.17l-7.54-7.54c-.32-.32-.32-.85,0-1.17l1.98-1.98h0s3.15-3.14,3.15-3.14c.32-.32.85-.32,1.17,0l1.39,1.39c.32.32.32.85,0,1.17l-2.56,2.56c-.32.32-.32.85,0,1.17l4.98,4.98c.32.32.85.32,1.17,0h0c.32-.32.32-.85,0-1.17l-.55-.55c-.32-.32-.32-.85,0-1.17l1.39-1.39c.32-.32.85-.32,1.17,0l2.53,2.53c.32.32.32.85,0,1.17Z"/>
          <path class="cls-2" d="M5.38,130.57l8.89-8.89c.32-.32.85-.32,1.17,0l6.61,6.61c.32.32.32.85,0,1.17l-1.4,1.4c-.32.32-.85.32-1.17,0l-4.62-4.62c-.32-.32-.85-.32-1.17,0l-.03.03c-.32.32-.32.85,0,1.17l7.54,7.54c.32.32.32.85,0,1.17l-1.98,1.98h0s-3.15,3.14-3.15,3.14c-.32.32-.85.32-1.17,0l-1.39-1.39c-.32-.32-.32-.85,0-1.17l2.56-2.56c.32-.32.32-.85,0-1.17l-4.98-4.98c-.32-.32-.85-.32-1.17,0h0c-.32.32-.32.85,0,1.17l.55.55c.32.32.32.85,0,1.17l-1.39,1.39c-.32.32-.85.32-1.17,0l-2.53-2.53c-.32-.32-.32-.85,0-1.17Z"/>
          <path class="cls-2" d="M.29,131.57l-8.89,8.89c-.32.32-.85.32-1.17,0l-6.61-6.61c-.32-.32-.32-.85,0-1.17l1.4-1.4c.32-.32.85-.32,1.17,0l4.62,4.62c.32.32.85.32,1.17,0l.03-.03c.32-.32.32-.85,0-1.17l-7.54-7.54c-.32-.32-.32-.85,0-1.17l1.98-1.98h0s3.15-3.14,3.15-3.14c.32-.32.85-.32,1.17,0l1.39,1.39c.32.32.32.85,0,1.17l-2.56,2.56c-.32.32-.32.85,0,1.17l4.98,4.98c.32.32.85.32,1.17,0h0c.32-.32.32-.85,0-1.17l-.55-.55c-.32-.32-.32-.85,0-1.17l1.39-1.39c.32-.32.85-.32,1.17,0l2.53,2.53c.32.32.32.85,0,1.17Z"/>
        </g>
        <g>
          <path class="cls-2" d="M50.21,42.72l-1.39,1.39c-.32.32-.85.32-1.17,0l-10.44-10.44c-.32-.32-.32-.85,0-1.17l8.88-8.88c.32-.32.85-.32,1.17,0l6.62,6.62c.32.32.32.85,0,1.17l-1.39,1.39c-.32.32-.85.32-1.17,0l-4.63-4.63c-.32-.32-.85-.32-1.17,0l-.03.03c-.32.32-.32.85,0,1.17l2.37,2.37c.32.32.32.85,0,1.17l-1.39,1.39c-.32.32-.85.32-1.17,0l-2.37-2.37c-.32-.32-.85-.32-1.17,0h0c-.32.32-.32.85,0,1.17l8.45,8.45c.32.32.32.85,0,1.17Z"/>
          <path class="cls-2" d="M66.45,43.91l-8.89,8.89c-.32.32-.85.32-1.17,0l-6.61-6.61c-.32-.32-.32-.85,0-1.17l1.4-1.4c.32-.32.85-.32,1.17,0l4.62,4.62c.32.32.85.32,1.17,0l.03-.03c.32-.32.32-.85,0-1.17l-7.54-7.54c-.32-.32-.32-.85,0-1.17l1.98-1.98h0s3.15-3.14,3.15-3.14c.32-.32.85-.32,1.17,0l1.39,1.39c.32.32.32.85,0,1.17l-2.56,2.56c-.32.32-.32.85,0,1.17l4.98,4.98c.32.32.85.32,1.17,0h0c.32-.32.32-.85,0-1.17l-.55-.55c-.32-.32-.32-.85,0-1.17l1.39-1.39c.32-.32.85-.32,1.17,0l2.53,2.53c.32.32.32.85,0,1.17Z"/>
          <path class="cls-2" d="M42.36,44.78l1.39-1.39c.32-.32.85-.32,1.17,0l10.44,10.44c.32.32.32.85,0,1.17l-8.88,8.88c-.32.32-.85.32-1.17,0l-6.62-6.62c-.32-.32-.32-.85,0-1.17l1.39-1.39c.32-.32.85-.32,1.17,0l4.63,4.63c.32.32.85.32,1.17,0l.03-.03c.32-.32.32-.85,0-1.17l-2.37-2.37c-.32-.32-.32-.85,0-1.17l1.39-1.39c.32-.32.85-.32,1.17,0l2.37,2.37c.32.32.85.32,1.17,0h0c.32-.32.32-.85,0-1.17l-8.45-8.45c-.32-.32-.32-.85,0-1.17Z"/>
          <path class="cls-2" d="M26.12,43.59l8.89-8.89c.32-.32.85-.32,1.17,0l6.61,6.61c.32.32.32.85,0,1.17l-1.4,1.4c-.32.32-.85.32-1.17,0l-4.62-4.62c-.32-.32-.85-.32-1.17,0l-.03.03c-.32.32-.32.85,0,1.17l7.54,7.54c.32.32.32.85,0,1.17l-1.98,1.98h0s-3.15,3.14-3.15,3.14c-.32.32-.85.32-1.17,0l-1.39-1.39c-.32-.32-.32-.85,0-1.17l2.56-2.56c.32-.32.32-.85,0-1.17l-4.98-4.98c-.32-.32-.85-.32-1.17,0h0c-.32.32-.32.85,0,1.17l.55.55c.32.32.32.85,0,1.17l-1.39,1.39c-.32.32-.85.32-1.17,0l-2.53-2.53c-.32-.32-.32-.85,0-1.17Z"/>
          <path class="cls-2" d="M72.58,65.09l-1.39,1.39c-.32.32-.85.32-1.17,0l-10.44-10.44c-.32-.32-.32-.85,0-1.17l8.88-8.88c.32-.32.85-.32,1.17,0l6.62,6.62c.32.32.32.85,0,1.17l-1.39,1.39c-.32.32-.85.32-1.17,0l-4.63-4.63c-.32-.32-.85-.32-1.17,0l-.03.03c-.32.32-.32.85,0,1.17l2.37,2.37c.32.32.32.85,0,1.17l-1.39,1.39c-.32.32-.85.32-1.17,0l-2.37-2.37c-.32-.32-.85-.32-1.17,0h0c-.32.32-.32.85,0,1.17l8.45,8.45c.32.32.32.85,0,1.17Z"/>
          <path class="cls-2" d="M88.82,66.28l-8.89,8.89c-.32.32-.85.32-1.17,0l-6.61-6.61c-.32-.32-.32-.85,0-1.17l1.4-1.4c.32-.32.85-.32,1.17,0l4.62,4.62c.32.32.85.32,1.17,0l.03-.03c.32-.32.32-.85,0-1.17l-7.54-7.54c-.32-.32-.32-.85,0-1.17l1.98-1.98h0s3.15-3.14,3.15-3.14c.32-.32.85-.32,1.17,0l1.39,1.39c.32.32.32.85,0,1.17l-2.56,2.56c-.32.32-.32.85,0,1.17l4.98,4.98c.32.32.85.32,1.17,0h0c.32-.32.32-.85,0-1.17l-.55-.55c-.32-.32-.32-.85,0-1.17l1.39-1.39c.32-.32.85-.32,1.17,0l2.53,2.53c.32.32.32.85,0,1.17Z"/>
          <path class="cls-2" d="M64.73,67.15l1.39-1.39c.32-.32.85-.32,1.17,0l10.44,10.44c.32.32.32.85,0,1.17l-8.88,8.88c-.32.32-.85.32-1.17,0l-6.62-6.62c-.32-.32-.32-.85,0-1.17l1.39-1.39c.32-.32.85-.32,1.17,0l4.63,4.63c.32.32.85.32,1.17,0l.03-.03c.32-.32.32-.85,0-1.17l-2.37-2.37c-.32-.32-.32-.85,0-1.17l1.39-1.39c.32-.32.85-.32,1.17,0l2.37,2.37c.32.32.85.32,1.17,0h0c.32-.32.32-.85,0-1.17l-8.45-8.45c-.32-.32-.32-.85,0-1.17Z"/>
          <path class="cls-2" d="M48.49,65.96l8.89-8.89c.32-.32.85-.32,1.17,0l6.61,6.61c.32.32.32.85,0,1.17l-1.4,1.4c-.32.32-.85.32-1.17,0l-4.62-4.62c-.32-.32-.85-.32-1.17,0l-.03.03c-.32.32-.32.85,0,1.17l7.54,7.54c.32.32.32.85,0,1.17l-1.98,1.98h0s-3.15,3.14-3.15,3.14c-.32.32-.85.32-1.17,0l-1.39-1.39c-.32-.32-.32-.85,0-1.17l2.56-2.56c.32-.32.32-.85,0-1.17l-4.98-4.98c-.32-.32-.85-.32-1.17,0h0c-.32.32-.32.85,0,1.17l.55.55c.32.32.32.85,0,1.17l-1.39,1.39c-.32.32-.85.32-1.17,0l-2.53-2.53c-.32-.32-.32-.85,0-1.17Z"/>
          <path class="cls-2" d="M27.17,65.77l-1.39,1.39c-.32.32-.85.32-1.17,0l-10.44-10.44c-.32-.32-.32-.85,0-1.17l8.88-8.88c.32-.32.85-.32,1.17,0l6.62,6.62c.32.32.32.85,0,1.17l-1.39,1.39c-.32.32-.85.32-1.17,0l-4.63-4.63c-.32-.32-.85-.32-1.17,0l-.03.03c-.32.32-.32.85,0,1.17l2.37,2.37c.32.32.32.85,0,1.17l-1.39,1.39c-.32.32-.85.32-1.17,0l-2.37-2.37c-.32-.32-.85-.32-1.17,0h0c-.32.32-.32.85,0,1.17l8.45,8.45c.32.32.32.85,0,1.17Z"/>
          <path class="cls-2" d="M43.41,66.96l-8.89,8.89c-.32.32-.85.32-1.17,0l-6.61-6.61c-.32-.32-.32-.85,0-1.17l1.4-1.4c.32-.32.85-.32,1.17,0l4.62,4.62c.32.32.85.32,1.17,0l.03-.03c.32-.32.32-.85,0-1.17l-7.54-7.54c-.32-.32-.32-.85,0-1.17l1.98-1.98h0s3.15-3.14,3.15-3.14c.32-.32.85-.32,1.17,0l1.39,1.39c.32.32.32.85,0,1.17l-2.56,2.56c-.32.32-.32.85,0,1.17l4.98,4.98c.32.32.85.32,1.17,0h0c.32-.32.32-.85,0-1.17l-.55-.55c-.32-.32-.32-.85,0-1.17l1.39-1.39c.32-.32.85-.32,1.17,0l2.53,2.53c.32.32.32.85,0,1.17Z"/>
          <path class="cls-2" d="M19.32,67.83l1.39-1.39c.32-.32.85-.32,1.17,0l10.44,10.44c.32.32.32.85,0,1.17l-8.88,8.88c-.32.32-.85.32-1.17,0l-6.62-6.62c-.32-.32-.32-.85,0-1.17l1.39-1.39c.32-.32.85-.32,1.17,0l4.63,4.63c.32.32.85.32,1.17,0l.03-.03c.32-.32.32-.85,0-1.17l-2.37-2.37c-.32-.32-.32-.85,0-1.17l1.39-1.39c.32-.32.85-.32,1.17,0l2.37,2.37c.32.32.85.32,1.17,0h0c.32-.32.32-.85,0-1.17l-8.45-8.45c-.32-.32-.32-.85,0-1.17Z"/>
          <path class="cls-2" d="M3.08,66.64l8.89-8.89c.32-.32.85-.32,1.17,0l6.61,6.61c.32.32.32.85,0,1.17l-1.4,1.4c-.32.32-.85.32-1.17,0l-4.62-4.62c-.32-.32-.85-.32-1.17,0l-.03.03c-.32.32-.32.85,0,1.17l7.54,7.54c.32.32.32.85,0,1.17l-1.98,1.98h0s-3.15,3.14-3.15,3.14c-.32.32-.85.32-1.17,0l-1.39-1.39c-.32-.32-.32-.85,0-1.17l2.56-2.56c.32-.32.32-.85,0-1.17l-4.98-4.98c-.32-.32-.85-.32-1.17,0h0c-.32.32-.32.85,0,1.17l.55.55c.32.32.32.85,0,1.17l-1.39,1.39c-.32.32-.85.32-1.17,0l-2.53-2.53c-.32-.32-.32-.85,0-1.17Z"/>
          <path class="cls-2" d="M49.53,88.14l-1.39,1.39c-.32.32-.85.32-1.17,0l-10.44-10.44c-.32-.32-.32-.85,0-1.17l8.88-8.88c.32-.32.85-.32,1.17,0l6.62,6.62c.32.32.32.85,0,1.17l-1.39,1.39c-.32.32-.85.32-1.17,0l-4.63-4.63c-.32-.32-.85-.32-1.17,0l-.03.03c-.32.32-.32.85,0,1.17l2.37,2.37c.32.32.32.85,0,1.17l-1.39,1.39c-.32.32-.85.32-1.17,0l-2.37-2.37c-.32-.32-.85-.32-1.17,0h0c-.32.32-.32.85,0,1.17l8.45,8.45c.32.32.32.85,0,1.17Z"/>
          <path class="cls-2" d="M65.77,89.32l-8.89,8.89c-.32.32-.85.32-1.17,0l-6.61-6.61c-.32-.32-.32-.85,0-1.17l1.4-1.4c.32-.32.85-.32,1.17,0l4.62,4.62c.32.32.85.32,1.17,0l.03-.03c.32-.32.32-.85,0-1.17l-7.54-7.54c-.32-.32-.32-.85,0-1.17l1.98-1.98h0s3.15-3.14,3.15-3.14c.32-.32.85-.32,1.17,0l1.39,1.39c.32.32.32.85,0,1.17l-2.56,2.56c-.32.32-.32.85,0,1.17l4.98,4.98c.32.32.85.32,1.17,0h0c.32-.32.32-.85,0-1.17l-.55-.55c-.32-.32-.32-.85,0-1.17l1.39-1.39c.32-.32.85-.32,1.17,0l2.53,2.53c.32.32.32.85,0,1.17Z"/>
          <path class="cls-2" d="M41.68,90.2l1.39-1.39c.32-.32.85-.32,1.17,0l10.44,10.44c.32.32.32.85,0,1.17l-8.88,8.88c-.32.32-.85.32-1.17,0l-6.62-6.62c-.32-.32-.32-.85,0-1.17l1.39-1.39c.32-.32.85-.32,1.17,0l4.63,4.63c.32.32.85.32,1.17,0l.03-.03c.32-.32.32-.85,0-1.17l-2.37-2.37c-.32-.32-.32-.85,0-1.17l1.39-1.39c.32-.32.85-.32,1.17,0l2.37,2.37c.32.32.85.32,1.17,0h0c.32-.32.32-.85,0-1.17l-8.45-8.45c-.32-.32-.32-.85,0-1.17Z"/>
          <path class="cls-2" d="M25.44,89.01l8.89-8.89c.32-.32.85-.32,1.17,0l6.61,6.61c.32.32.32.85,0,1.17l-1.4,1.4c-.32.32-.85.32-1.17,0l-4.62-4.62c-.32-.32-.85-.32-1.17,0l-.03.03c-.32.32-.32.85,0,1.17l7.54,7.54c.32.32.32.85,0,1.17l-1.98,1.98h0s-3.15,3.14-3.15,3.14c-.32.32-.85.32-1.17,0l-1.39-1.39c-.32-.32-.32-.85,0-1.17l2.56-2.56c.32-.32.32-.85,0-1.17l-4.98-4.98c-.32-.32-.85-.32-1.17,0h0c-.32.32-.32.85,0,1.17l.55.55c.32.32.32.85,0,1.17l-1.39,1.39c-.32.32-.85.32-1.17,0l-2.53-2.53c-.32-.32-.32-.85,0-1.17Z"/>
        </g>
        <path class="cls-2" d="M2.59,66.28l-8.89,8.89c-.32.32-.85.32-1.17,0l-6.61-6.61c-.32-.32-.32-.85,0-1.17l1.4-1.4c.32-.32.85-.32,1.17,0l4.62,4.62c.32.32.85.32,1.17,0l.03-.03c.32-.32.32-.85,0-1.17l-7.54-7.54c-.32-.32-.32-.85,0-1.17l1.98-1.98h0s3.15-3.14,3.15-3.14c.32-.32.85-.32,1.17,0l1.39,1.39c.32.32.32.85,0,1.17l-2.56,2.56c-.32.32-.32.85,0,1.17l4.98,4.98c.32.32.85.32,1.17,0h0c.32-.32.32-.85,0-1.17l-.55-.55c-.32-.32-.32-.85,0-1.17l1.39-1.39c.32-.32.85-.32,1.17,0l2.53,2.53c.32.32.32.85,0,1.17Z"/>
        <g>
          <path class="cls-2" d="M70.28,1.16l-1.39,1.39c-.32.32-.85.32-1.17,0l-10.44-10.44c-.32-.32-.32-.85,0-1.17l8.88-8.88c.32-.32.85-.32,1.17,0l6.62,6.62c.32.32.32.85,0,1.17l-1.39,1.39c-.32.32-.85.32-1.17,0l-4.63-4.63c-.32-.32-.85-.32-1.17,0l-.03.03c-.32.32-.32.85,0,1.17l2.37,2.37c.32.32.32.85,0,1.17l-1.39,1.39c-.32.32-.85.32-1.17,0l-2.37-2.37c-.32-.32-.85-.32-1.17,0h0c-.32.32-.32.85,0,1.17L70.28-.01c.32.32.32.85,0,1.17Z"/>
          <path class="cls-2" d="M86.52,2.35l-8.89,8.89c-.32.32-.85.32-1.17,0l-6.61-6.61c-.32-.32-.32-.85,0-1.17l1.4-1.4c.32-.32.85-.32,1.17,0l4.62,4.62c.32.32.85.32,1.17,0l.03-.03c.32-.32.32-.85,0-1.17l-7.54-7.54c-.32-.32-.32-.85,0-1.17l1.98-1.98h0s3.15-3.14,3.15-3.14c.32-.32.85-.32,1.17,0l1.39,1.39c.32.32.32.85,0,1.17l-2.56,2.56c-.32.32-.32.85,0,1.17l4.98,4.98c.32.32.85.32,1.17,0h0c.32-.32.32-.85,0-1.17l-.55-.55c-.32-.32-.32-.85,0-1.17l1.39-1.39c.32-.32.85-.32,1.17,0l2.53,2.53c.32.32.32.85,0,1.17Z"/>
          <path class="cls-2" d="M62.43,3.22l1.39-1.39c.32-.32.85-.32,1.17,0l10.44,10.44c.32.32.32.85,0,1.17l-8.88,8.88c-.32.32-.85.32-1.17,0l-6.62-6.62c-.32-.32-.32-.85,0-1.17l1.39-1.39c.32-.32.85-.32,1.17,0l4.63,4.63c.32.32.85.32,1.17,0l.03-.03c.32-.32.32-.85,0-1.17l-2.37-2.37c-.32-.32-.32-.85,0-1.17l1.39-1.39c.32-.32.85-.32,1.17,0l2.37,2.37c.32.32.85.32,1.17,0h0c.32-.32.32-.85,0-1.17l-8.45-8.45c-.32-.32-.32-.85,0-1.17Z"/>
          <path class="cls-2" d="M46.19,2.03l8.89-8.89c.32-.32.85-.32,1.17,0L62.86-.25c.32.32.32.85,0,1.17l-1.4,1.4c-.32.32-.85.32-1.17,0l-4.62-4.62c-.32-.32-.85-.32-1.17,0l-.03.03c-.32.32-.32.85,0,1.17l7.54,7.54c.32.32.32.85,0,1.17l-1.98,1.98h0s-3.15,3.14-3.15,3.14c-.32.32-.85.32-1.17,0l-1.39-1.39c-.32-.32-.32-.85,0-1.17l2.56-2.56c.32-.32.32-.85,0-1.17l-4.98-4.98c-.32-.32-.85-.32-1.17,0h0c-.32.32-.32.85,0,1.17l.55.55c.32.32.32.85,0,1.17l-1.39,1.39c-.32.32-.85.32-1.17,0l-2.53-2.53c-.32-.32-.32-.85,0-1.17Z"/>
          <path class="cls-2" d="M92.65,23.52l-1.39,1.39c-.32.32-.85.32-1.17,0l-10.44-10.44c-.32-.32-.32-.85,0-1.17l8.88-8.88c.32-.32.85-.32,1.17,0l6.62,6.62c.32.32.32.85,0,1.17l-1.39,1.39c-.32.32-.85.32-1.17,0l-4.63-4.63c-.32-.32-.85-.32-1.17,0l-.03.03c-.32.32-.32.85,0,1.17l2.37,2.37c.32.32.32.85,0,1.17l-1.39,1.39c-.32.32-.85.32-1.17,0l-2.37-2.37c-.32-.32-.85-.32-1.17,0h0c-.32.32-.32.85,0,1.17l8.45,8.45c.32.32.32.85,0,1.17Z"/>
          <path class="cls-2" d="M84.8,25.58l1.39-1.39c.32-.32.85-.32,1.17,0l10.44,10.44c.32.32.32.85,0,1.17l-8.88,8.88c-.32.32-.85.32-1.17,0l-6.62-6.62c-.32-.32-.32-.85,0-1.17l1.39-1.39c.32-.32.85-.32,1.17,0l4.63,4.63c.32.32.85.32,1.17,0l.03-.03c.32-.32.32-.85,0-1.17l-2.37-2.37c-.32-.32-.32-.85,0-1.17l1.39-1.39c.32-.32.85-.32,1.17,0l2.37,2.37c.32.32.85.32,1.17,0h0c.32-.32.32-.85,0-1.17l-8.45-8.45c-.32-.32-.32-.85,0-1.17Z"/>
          <path class="cls-2" d="M68.56,24.39l8.89-8.89c.32-.32.85-.32,1.17,0l6.61,6.61c.32.32.32.85,0,1.17l-1.4,1.4c-.32.32-.85.32-1.17,0l-4.62-4.62c-.32-.32-.85-.32-1.17,0l-.03.03c-.32.32-.32.85,0,1.17l7.54,7.54c.32.32.32.85,0,1.17l-1.98,1.98h0s-3.15,3.14-3.15,3.14c-.32.32-.85.32-1.17,0l-1.39-1.39c-.32-.32-.32-.85,0-1.17l2.56-2.56c.32-.32.32-.85,0-1.17l-4.98-4.98c-.32-.32-.85-.32-1.17,0h0c-.32.32-.32.85,0,1.17l.55.55c.32.32.32.85,0,1.17l-1.39,1.39c-.32.32-.85.32-1.17,0l-2.53-2.53c-.32-.32-.32-.85,0-1.17Z"/>
        </g>
        <g>
          <path class="cls-2" d="M29.47.48l-1.39,1.39c-.32.32-.85.32-1.17,0l-10.44-10.44c-.32-.32-.32-.85,0-1.17l8.88-8.88c.32-.32.85-.32,1.17,0l6.62,6.62c.32.32.32.85,0,1.17l-1.39,1.39c-.32.32-.85.32-1.17,0l-4.63-4.63c-.32-.32-.85-.32-1.17,0l-.03.03c-.32.32-.32.85,0,1.17l2.37,2.37c.32.32.32.85,0,1.17l-1.39,1.39c-.32.32-.85.32-1.17,0l-2.37-2.37c-.32-.32-.85-.32-1.17,0h0c-.32.32-.32.85,0,1.17L29.47-.69c.32.32.32.85,0,1.17Z"/>
          <path class="cls-2" d="M45.71,1.67l-8.89,8.89c-.32.32-.85.32-1.17,0l-6.61-6.61c-.32-.32-.32-.85,0-1.17l1.4-1.4c.32-.32.85-.32,1.17,0l4.62,4.62c.32.32.85.32,1.17,0l.03-.03c.32-.32.32-.85,0-1.17l-7.54-7.54c-.32-.32-.32-.85,0-1.17l1.98-1.98h0s3.15-3.14,3.15-3.14c.32-.32.85-.32,1.17,0l1.39,1.39c.32.32.32.85,0,1.17l-2.56,2.56c-.32.32-.32.85,0,1.17l4.98,4.98c.32.32.85.32,1.17,0h0c.32-.32.32-.85,0-1.17l-.55-.55c-.32-.32-.32-.85,0-1.17l1.39-1.39c.32-.32.85-.32,1.17,0l2.53,2.53c.32.32.32.85,0,1.17Z"/>
          <path class="cls-2" d="M21.62,2.54l1.39-1.39c.32-.32.85-.32,1.17,0l10.44,10.44c.32.32.32.85,0,1.17l-8.88,8.88c-.32.32-.85.32-1.17,0l-6.62-6.62c-.32-.32-.32-.85,0-1.17l1.39-1.39c.32-.32.85-.32,1.17,0l4.63,4.63c.32.32.85.32,1.17,0l.03-.03c.32-.32.32-.85,0-1.17l-2.37-2.37c-.32-.32-.32-.85,0-1.17l1.39-1.39c.32-.32.85-.32,1.17,0l2.37,2.37c.32.32.85.32,1.17,0h0c.32-.32.32-.85,0-1.17L21.62,3.71c-.32-.32-.32-.85,0-1.17Z"/>
          <path class="cls-2" d="M5.38,1.35L14.27-7.54c.32-.32.85-.32,1.17,0L22.04-.93c.32.32.32.85,0,1.17l-1.4,1.4c-.32.32-.85.32-1.17,0l-4.62-4.62c-.32-.32-.85-.32-1.17,0l-.03.03c-.32.32-.32.85,0,1.17l7.54,7.54c.32.32.32.85,0,1.17l-1.98,1.98h0s-3.15,3.14-3.15,3.14c-.32.32-.85.32-1.17,0l-1.39-1.39c-.32-.32-.32-.85,0-1.17l2.56-2.56c.32-.32.32-.85,0-1.17L11.09.77c-.32-.32-.85-.32-1.17,0h0c-.32.32-.32.85,0,1.17l.55.55c.32.32.32.85,0,1.17l-1.39,1.39c-.32.32-.85.32-1.17,0l-2.53-2.53c-.32-.32-.32-.85,0-1.17Z"/>
          <path class="cls-2" d="M.29,2.35l-8.89,8.89c-.32.32-.85.32-1.17,0l-6.61-6.61c-.32-.32-.32-.85,0-1.17l1.4-1.4c.32-.32.85-.32,1.17,0l4.62,4.62c.32.32.85.32,1.17,0l.03-.03c.32-.32.32-.85,0-1.17l-7.54-7.54c-.32-.32-.32-.85,0-1.17l1.98-1.98h0s3.15-3.14,3.15-3.14c.32-.32.85-.32,1.17,0l1.39,1.39c.32.32.32.85,0,1.17l-2.56,2.56c-.32.32-.32.85,0,1.17L-5.42,2.92c.32.32.85.32,1.17,0h0c.32-.32.32-.85,0-1.17l-.55-.55c-.32-.32-.32-.85,0-1.17l1.39-1.39c.32-.32.85-.32,1.17,0L.29,1.18c.32.32.32.85,0,1.17Z"/>
          <path class="cls-2" d="M6.42,23.52l-1.39,1.39c-.32.32-.85.32-1.17,0L-6.58,14.48c-.32-.32-.32-.85,0-1.17L2.29,4.43c.32-.32.85-.32,1.17,0l6.62,6.62c.32.32.32.85,0,1.17l-1.39,1.39c-.32.32-.85.32-1.17,0l-4.63-4.63c-.32-.32-.85-.32-1.17,0l-.03.03c-.32.32-.32.85,0,1.17l2.37,2.37c.32.32.32.85,0,1.17l-1.39,1.39c-.32.32-.85.32-1.17,0l-2.37-2.37c-.32-.32-.85-.32-1.17,0h0c-.32.32-.32.85,0,1.17l8.45,8.45c.32.32.32.85,0,1.17Z"/>
          <path class="cls-2" d="M22.66,24.71l-8.89,8.89c-.32.32-.85.32-1.17,0l-6.61-6.61c-.32-.32-.32-.85,0-1.17l1.4-1.4c.32-.32.85-.32,1.17,0l4.62,4.62c.32.32.85.32,1.17,0l.03-.03c.32-.32.32-.85,0-1.17l-7.54-7.54c-.32-.32-.32-.85,0-1.17l1.98-1.98h0s3.15-3.14,3.15-3.14c.32-.32.85-.32,1.17,0l1.39,1.39c.32.32.32.85,0,1.17l-2.56,2.56c-.32.32-.32.85,0,1.17l4.98,4.98c.32.32.85.32,1.17,0h0c.32-.32.32-.85,0-1.17l-.55-.55c-.32-.32-.32-.85,0-1.17l1.39-1.39c.32-.32.85-.32,1.17,0l2.53,2.53c.32.32.32.85,0,1.17Z"/>
          <path class="cls-2" d="M-1.43,25.58L-.04,24.19c.32-.32.85-.32,1.17,0l10.44,10.44c.32.32.32.85,0,1.17l-8.88,8.88c-.32.32-.85.32-1.17,0l-6.62-6.62c-.32-.32-.32-.85,0-1.17l1.39-1.39c.32-.32.85-.32,1.17,0l4.63,4.63c.32.32.85.32,1.17,0l.03-.03c.32-.32.32-.85,0-1.17l-2.37-2.37c-.32-.32-.32-.85,0-1.17l1.39-1.39c.32-.32.85-.32,1.17,0l2.37,2.37c.32.32.85.32,1.17,0h0c.32-.32.32-.85,0-1.17L-1.43,26.75c-.32-.32-.32-.85,0-1.17Z"/>
        </g>
      </g>
    </pattern>
  </defs>
  <g id="Calque_1-2" data-name="Calque 1">
    <rect class="cls-3" width="1897.45" height="5298.31"/>
  </g>
</svg>