<?xml version="1.0" encoding="UTF-8"?>
<svg id="Calque_2" data-name="Calque 2" xmlns="http://www.w3.org/2000/svg" viewBox="0 0 2457.46 3547.15">
  <defs>
    <style>
      .cls-1 {
        fill: none;
        stroke: #c4bb7a;
        stroke-miterlimit: 10;
      }
    </style>
  </defs>
  <g id="Calque_2-2" data-name="Calque 2">
    <path class="cls-1" d="M667.32,1407.95c20.43,35.74,43.91,35.74,63.32,69.45s28.6,40.85,38.81,59.23,15.32,34.72,2.04,42.89-71.49,51.06-70.47,80.68,11.23,36.77,22.47,35.74,14.3-9.19,14.3-9.19c-5.11-1.02-6.13-14.3,4.09-20.43s27.57-20.43,36.77-30.64,6.13-42.89,6.13-42.89c10.21,40.85,10.21,72.51,20.43,74.55s29.62-9.19,41.87-15.32c-7.15-3.06-17.36-11.23-11.23-17.36s4.09-56.17-35.74-70.47c48,16.34,70.47,28.6,79.66,63.32s4.09,99.06-33.7,131.74-56.17,46.98-84.77,51.06-45.96,8.17-42.89,10.21c12.26,12.26,29.62,1.02,49.02-3.06s17.36-4.09,24.51-8.17,15.83-14.81,15.83-14.81c8.17.51,20.43-3.57,31.15-14.3s29.62-26.04,38.3-39.83c-15.32,27.06-17.87,45.96-17.87,50.04s-5.11,61.79,23.49,86.3,36.26,19.4,40.85,25.02,9.7,11.74,5.62,17.36c6.64-12.26-2.55-24-13.79-31.15s-37.79-33.7-37.79-74.55,7.66-73.53,11.23-82.72,21.45-75.06-20.43-133.79c-17.87-22.47-20.43-25.53-9.19-28.09s36.77,3.06,76.6-24.51,53.62-49.53,57.19-54.13c12.77-8.17,17.87-12.77,42.38-10.21s22.98-27.06,5.11-23.49-29.62,13.28-36.26,13.28-15.32-6.64-22.98-2.04-7.66,26.55-24,44.43-54.13,48-94.47,47.49-58.72-16.85-58.72-16.85c39.32,3.06,63.83,4.09,88.85-10.21s38.3-30.13,38.81-50.04c3.06-8.17,14.3-29.11,31.15-32.68-19.91-5.11-72-9.7-93.45,28.09-14.3,5.11-54.64,12.77-102.64-10.72s-91.91-73.02-92.43-82.21c14.3,12.77,57.19,54.64,93.45,54.64s42.89-7.15,49.53-19.4,14.3-16.85,23.49-13.28c-2.55-19.4-15.32-43.91-56.68-39.32-20.43,3.57-43.91,15.83-59.74,15.83s-24-4.6-24-4.6c21.45,2.04,40.85-4.6,49.02-18.89s5.62-29.62,5.62-29.62c-8.68,2.55-16.85,2.55-16.85,2.55-2.55-7.15-14.3-9.19-28.6,0s-25.02,22.47-25.02,22.47c-1.53-18.89,7.15-39.83-60.26-56.68-40.85-16.85-47.49-21.96-47.49-30.13,12.26,10.21,31.15,24,48.51,21.96s52.09-19.4,52.09-19.4c2.55,0,5.11,3.57,5.11,3.57,4.6-8.68,9.19-27.57,3.57-36.26,11.74,0,20.43,0,22.47-6.13s1.53-24.51-14.81-36.26-25.53-12.26-28.6-20.43-15.83-35.23-40.85-38.3-66.38,14.81-70.98,60.77c-.51-8.68-2.04-33.7,10.72-51.57s-5.11-32.68-22.98-30.64-.51-19.4-.51-27.06-18.38-26.55-41.36-3.06c-5.11,5.11,5.11,14.3-3.06,21.96s-34.72,27.57-22.98,51.57,35.23,51.57,35.23,51.57c-19.91-3.57-35.74-7.66-41.87,0s-8.68,6.13-13.28,1.02-34.72,5.11-44.94,14.3-15.83,14.3-24.51,15.32c-9.19,5.11-14.3,32.17,1.02,41.87s12.77,17.36,13.28,19.4,9.19,13.79,28.09,9.7,30.64-18.38,38.3-27.57,27.06-48.51,41.36-52.09,33.7,0,33.7,0c-21.96,3.57-34.21,17.36-34.21,28.6-6.64,2.55-12.77,13.79-10.21,20.94s13.28,7.15,18.38,4.09,8.17-11.74,8.17-11.74c7.66,5.11,28.6,10.72,42.38-3.06-4.09,11.23-2.04,11.23-4.09,11.23-8.68,0-16.85,6.64-18.38,7.15-16.34,2.04-77.11-2.04-82.72,5.62s-10.72,10.72-14.81,13.28-15.83,10.21-8.17,21.45-2.55,18.89-3.06,21.96.51,14.3,12.77,5.11,14.3-.51,14.3-.51c0,0-1.53,13.79,7.66,13.79,2.55-3.57,15.83-4.09,16.34,0,14.81-5.11,27.06-17.36,41.36-46.47,18.38-25.02,26.55-27.06,26.55-27.06-12.26,18.38-16.85,45.45-11.74,61.28s31.15,53.11,61.28,59.23c16.34,3.06,19.91-11.74,26.04-10.21s9.19,9.19,14.3,9.19c5.11-9.19,12.26-22.47,25.53-8.68Z"/>
    <path class="cls-1" d="M538.64,1314.51c-6.13,7.66-31.66,50.04-42.38,54.64s-13.28,12.77-26.04,8.68-17.36-17.36-17.36-17.36c-15.32,8.17-20.94,8.17-20.94,8.17,2.55,42.38,4.6,53.11,28.09,53.62,6.64,5.11,2.55,7.66,3.57,18.89s20.43,16.34,20.43,16.34c6.64,28.6,31.15,59.23,52.09,59.23-12.26-4.09-42.38-37.79-28.6-56.68,6.13-3.06,18.38,1.53,28.6-1.53s15.83-19.4,15.83-19.4c1.53,9.19,21.96,4.09,26.55-9.19,10.21-1.53,14.3-2.55,16.85-7.15-22.47-8.68-80.17-49.02-56.68-108.26Z"/>
    <path class="cls-1" d="M428.09,1369.91c-14.55,3.32-54.89,21.45-74.04,66.64s-8.43,86.55,21.19,94.21c16.85,4.09,19.4-12,19.4-12-5.36,7.15-23.74,3.32-19.66-4.85s23.49-23.74,47.23-28.6,25.53-27.83,19.15-50.81-10.98-15.83-13.28-64.6Z"/>
    <path class="cls-1" d="M425.79,1342.85c-6.13,10.98-41.87,45.7-108.26,34.72-52.85-24.26-69.19-50.55-54.38-84.51,15.83-30.38,35.23-7.66,30.89,4.09-.77-4.09-8.17-16.09-14.3-8.94s-4.85,36.26,12.26,27.32,26.55-25.79,43.66-26.3,38.05,7.83,61.79,35.23c21.45,24.77,28.34,18.38,28.34,18.38Z"/>
    <path class="cls-1" d="M304.51,1175.87c22.98-5.87,53.36-23.49,53.36-23.49,0,0,2.81,18.64,11.49,11.74s-4.09-25.53,14.3-34.72,28.6-14.55,41.36-5.87,9.7,7.91,9.7,7.91c7.91-1.53,28.09-1.53,32.43,3.32-.77,6.89-5.87,13.79,2.55,28.6s32.43,43.15,32.43,43.15c-25.79-6.38-69.19-.51-77.87,4.34s-31.66,24.51-40.09,24-15.32-19.4-5.11-25.28,14.55-3.83,14.55-3.83c-5.36,1.53-4.6,6.13-2.55,6.38s8.17,0,8.94-6.89-12.77-13.79-21.19-12.77-15.06-2.81-15.06-2.81c8.68-3.32,13.02-24.26-59.23-13.79Z"/>
    <path class="cls-1" d="M536.6,1237.91c-5.11,2.55-15.32,12-12.77,27.06,2.55,3.06,18.64,10.47,29.11,6.64-11.74-4.6-24.51-13.53-16.34-33.7Z"/>
    <path class="cls-1" d="M655.83,1416.89c16.85,15.57,78.13,74.55,83.74,96.77,1.28,22.72-5.36,25.53-5.62,32.17s2.55,22.21,10.47,25.28c-27.32-4.34-55.15-25.79-61.53-55.4s-16.34-85.28-27.83-97.02c-3.57-3.32.77-1.79.77-1.79Z"/>
    <path class="cls-1" d="M647.66,1419.44c4.34,10.21,18.38,53.11,7.15,62.81s-24.26,7.15-22.98-5.11,20.17-45.45,15.83-57.7Z"/>
    <path class="cls-1" d="M735.49,1465.4c5.36,2.3,66.64,30.38,104.43,29.11,20.94-3.83,24-5.62,24-5.62-13.02,13.02-51.32,36.77-56.94,41.87s-5.62,8.43-5.62,8.43c-4.09-2.55-8.43-.51-8.43,1.02-3.57-18.13-17.87-30.13-27.32-36s-28.6-26.81-30.13-38.81Z"/>
    <path class="cls-1" d="M873.11,1579.53c7.4,0,45.7-16.85,57.19-23.23s32.68-6.64,37.79,6.38,14.81,21.96,24.51,15.06l9.7-6.89c-1.28,11.74-7.91,24.51-16.6,31.66s-15.32,29.87-62.81,25.79c-34.98-8.94-41.11-15.32-46.98-26.55,18.38,7.4,50.04,12,62.81,5.11-47.23-5.11-75.32-15.06-65.62-27.32Z"/>
    <path class="cls-1" d="M906.05,1636.72c16.85,4.85,48.26,30.13,47.23,54.89-2.3,25.53-14.81,32.94-8.17,38.3-3.83,2.55-28.6,7.66-33.96-13.02s3.83-66.89-5.11-80.17Z"/>
    <path class="cls-1" d="M856,1817.49c-2.3,19.15-8.94,85.79-24.51,98.81s-18.13,22.47-31.15,22.72-12.77,4.34-12.77,4.34c-4.6-16.34-.26-56.17,22.98-76.09s42.13-36.51,45.45-49.79Z"/>
    <path class="cls-1" d="M848.6,1799.61c-1.79,9.19-17.11,35.74-34.21,38.3-4.09-.26-.77-7.91-6.38-8.68s-12.26-3.06-14.04,1.53c1.53-10.21,13.28-29.11,54.64-31.15Z"/>
    <path class="cls-1" d="M714.05,1201.14c13.79-13.02,57.45-19.15,57.45-19.15,3.06,0,62.04-45.19,42.89-130.98,6.13,4.6,16.09,60.51,13.02,77.36,7.66-28.34,9.19-52.85,49.02-67.4s76.6,5.36,90.38,9.19,26.04-3.06,26.04-3.06c-9.96,11.49-22.98,9.19-75.83.77s-79.66,61.28-79.66,61.28c0,0-51.06,52.6-61.79,56.17s-37.28,3.74-61.53,15.83Z"/>
    <path class="cls-1" d="M720.68,1218.51c25.02-11.49,52.34-26.3,98.81-21.45s108.26,15.32,153.96,74.81c36.77,47.49,50.55,53.87,50.55,53.87-36-9.7-66.64-19.91-81.7-53.62s-64.04-17.91-73.28-18.38c-50.3-2.55-91.15-65.62-148.34-35.23Z"/>
    <path class="cls-1" d="M815.41,1193.74c13.28-1.28,76.09-5.36,92.17,7.15,24.51,11.23,43.15,22.72,53.87,50.3-20.94-20.43-79.4-58.72-146.04-57.45Z"/>
    <path class="cls-1" d="M559.07,1163.61c13.02-21.96,18.64-23.49,15.32-32.94s-15.83-18.13-15.83-18.13c-6.64-22.72,7.66-52.09,24.26-56.17-5.11,4.09,2.3,7.4,14.04,6.13s22.21-25.53,36.77-27.06,27.06,2.81,27.06,2.81c-7.91,5.87-3.06,12.77-3.06,12.77,5.87,2.55,10.47,16.34,7.15,17.62,6.64,4.34,13.79,14.3-1.28,20.68s1.28,11.61,2.55,11.74c7.15.77,13.28-5.62,13.28-5.62-8.17,13.02-16.85,25.28-10.72,29.62s29.36,5.87,23.74,17.87-32.17,14.55-32.17,14.55c-14.81-18.64-27.54-31.55-63.06-21.7-21.19,5.87-38.04,27.83-38.04,27.83Z"/>
    <path class="cls-1" d="M489.07,2054.8c-23.72-6.47-33.65,3.45-56.08-2.59s-29.33-5.18-41.41-8.63c-12.08-3.45-21.14-8.2-18.98-17.25s8.63-51.76-4.31-63.84c-12.94-12.08-20.27-10.78-24.59-5.61-4.31,5.18-2.16,9.92-2.16,9.92,2.59-1.73,8.63,3.45,6.9,10.35s-3.02,20.27-2.59,28.47,15.53,20.71,15.53,20.71c-21.57-12.94-34.94-26.31-40.12-22.86s-8.63,16.39-11.22,24.16c4.31-1.73,12.08-2.59,12.08,2.59s22,25.45,44.86,14.67c-27.18,13.37-41.84,17.69-60.39,6.9-18.55-10.78-43.57-40.12-41.41-69.88s3.88-43.57,14.23-57.37,15.96-22.86,13.8-22.43c-10.35,0-12.94,12.08-19.41,22s-5.61,9.06-6.9,13.8-.43,12.94-.43,12.94c-3.67,3.24-7.12,10.14-7.12,19.2,0,9.06-1.51,23.51.65,33-4.96-17.9-11.86-26.96-13.59-28.69s-23.94-28.25-46.37-26.53-23.51,7.12-27.82,6.69-9.06-.86-9.71-4.96c2.37,7.98,11.22,9.06,18.98,7.33s30.2-1.73,47.45,15.53c17.25,17.25,27.82,34.29,30.2,39.68s22.65,40.76,65.14,47.88c17.04,1.94,19.41,2.16,15.74,7.98s-16.82,14.23-22,42.7-1.73,43.57-1.29,47.02c-1.94,8.84-2.16,12.94-13.59,22.21s1.73,21.14,7.76,12.08,6.9-18.12,9.71-20.92,9.27-3.67,10.57-8.84-7.98-14.45-8.63-28.9c-.65-14.45,2.59-43.14,19.84-59.96,17.25-16.82,31.92-17.69,31.92-17.69-17.9,15.31-28.69,25.23-33.21,41.84-4.53,16.61-3.45,28.9,4.74,37.53,2.16,4.74,6.25,18.33.65,26.96,10.57-6.25,34.51-26.31,27.61-51.33,3.88-8.2,17.69-28.47,47.88-38.82,30.2-10.35,69.66-7.98,73.76-4.31-11.43.65-47.23,1.08-62.55,16.39-15.31,15.31-15.1,21.14-12.73,29.12,2.37,7.98,1.08,13.16-4.31,15.53,9.27,7.12,25.02,12.08,40.55-7.33,7.12-10.14,11.86-25.23,18.55-31.92s12.08-8.2,12.08-8.2c-9.92,8.2-15.31,19.2-12.73,28.69s10.14,14.88,10.14,14.88c2.59-4.74,6.04-8.2,6.04-8.2,4.1,1.94,9.92-2.16,12.08-12.08,2.16-9.92,1.08-20.06,1.08-20.06,8.63,7.33,13.8,19.84,49.39-1.51,24.37-10.14,29.33-10.78,32.78-7.33-9.49.86-23.29,3.02-29.76,11.22-6.47,8.2-13.8,30.2-13.8,30.2-1.08,1.08-3.67.65-3.67.65,1.73,5.61,7.76,15.53,13.8,16.82-4.96,4.96-8.63,8.63-6.9,12.08,1.73,3.45,9.71,11,21.57,9.06,11.86-1.94,15.96-5.61,20.71-3.45s21.57,8.2,33.43-1.08,21.78-34.29,4.31-55.65c3.88,3.45,15.1,13.37,17.25,26.31,2.16,12.94,15.96,11.65,22.65,3.24s8.41,7.98,11.65,11.22,18.98,3.45,18.76-16.18c0-4.31-8.2-3.88-7.98-10.57.22-6.69,3.02-26.31-12.08-31.49s-36.67-6.9-36.67-6.9c9.92-6.9,18.33-11.86,17.69-17.69-.65-5.82,1.08-6.25,5.18-6.04s12.51-16.82,12.94-25.02.65-12.73,3.88-16.82c1.73-6.04-7.55-19.63-18.12-17.25-10.57,2.37-12.73-1.94-13.8-2.59s-9.71-1.94-15.96,7.76-5.18,20.71-4.53,27.82c.65,7.12,9.06,31.92,4.53,39.47s-14.23,14.23-14.23,14.23c7.76-10.78,7.12-21.78,2.37-26.53,1.73-3.88-.43-11.22-4.53-13.16s-8.63,2.59-9.49,6.04c-.86,3.45,1.51,8.41,1.51,8.41-5.39,1.08-16.61,7.55-16.61,19.2-3.02-6.47-3.88-5.61-3.02-6.47,3.67-3.67,4.31-9.92,4.74-10.78,6.04-7.76,33.43-31.7,32.57-37.31s0-9.06.65-11.86,2.37-11-5.61-12.51c-7.98-1.51-6.9-9.06-7.98-10.57s-6.25-5.82-7.55,3.24-5.82,6.25-5.82,6.25c0,0-5.18-6.47-9.06-2.59.43,2.59-4.96,8.41-6.9,6.9-4.1,8.41-4.1,18.76,2.16,37.1,2.8,18.33.22,22.65.22,22.65-2.59-12.94-12.08-26.31-20.92-30.84s-35.59-9.27-50.9.86c-8.2,5.61-3.45,13.37-6.69,15.31s-7.76,0-9.92,2.16c1.73,6.04,4.31,14.67-7.12,14.45Z"/>
    <path class="cls-1" d="M582.89,2039.92c-.65-5.82-7.76-34.51-5.18-40.98,2.59-6.47.22-11,7.33-14.67s14.67,0,14.67,0c3.02-9.92,5.39-12.29,5.39-12.29-18.98-16.82-24.37-20.49-34.51-10.78-4.96.65-4.31-2.16-9.49-6.47s-15.53,1.73-15.53,1.73c-14.88-9.27-38.18-11.86-47.02-3.02,6.9-3.45,33.86-1.94,36.02,11.86-1.29,3.88-8.41,7.12-11.43,12.73s1.51,14.88,1.51,14.88c-4.53-3.24-11,7.55-7.33,15.1-3.67,4.96-4.96,7.12-4.1,10.14,13.16-5.82,54.57-13.16,69.66,21.78Z"/>
    <path class="cls-1" d="M606.18,1969.82c4.74-7.55,14.13-32.24,3.13-59.42-11-27.18-33-40.12-48.74-30.84-8.84,5.39-3.13,13.26-3.13,13.26-.75-5.28,8.63-11.43,10.35-6.25,1.73,5.18.11,19.95-7.87,32.03s.97,22.54,13.37,29.55c12.4,7.01,11.32,2.05,32.89,21.68Z"/>
    <path class="cls-1" d="M618.58,1980.28c-2.05-7.23-1.62-36.99,31.06-60.39,32.57-12.08,50.58-7.87,58.66,12.73,6.15,19.52-11.65,18.12-14.77,11.32,2.05,1.4,10.24,3.34,9.81-2.26-.43-5.61-13.26-17.36-16.72-6.36s-.32,22.11-7.33,29.55-19.38,12.77-40.98,11.22c-19.52-1.4-19.73,4.21-19.73,4.21Z"/>
    <path class="cls-1" d="M740.33,1999.59c-7.23,12.19-12.62,32.46-12.62,32.46,0,0-9.06-6.69-9.81-.11-.75,6.58,12.51,9.06,8.63,20.71s-5.93,18.22-14.99,19.95-7.44.75-7.44.75c-2.7,3.99-11.22,12.51-15.1,12.29-2.59-3.24-3.34-8.3-13.16-11s-31.92-4.53-31.92-4.53c13.59-8.2,29.44-29.01,31.06-34.72s3.02-23.72,6.79-27.07c3.77-3.34,14.67,1.73,12.83,8.52s-4.53,7.76-4.53,7.76c1.62-2.91-.65-4.53-1.62-3.77s-3.45,3.45-.86,6.69,11.22.43,14.34-3.56c3.13-3.99,7.55-5.18,7.55-5.18-2.26,5.07,4.74,15.74,30.84-19.2Z"/>
    <path class="cls-1" d="M616.1,2071.41c1.08-3.24,1.4-11.54-6.04-16.82-2.37-.22-12.29,3.45-15.1,9.49,6.9-3.02,16.07-4.64,21.14,7.33Z"/>
    <path class="cls-1" d="M490.14,2046.17c-13.7.54-64.49,1.51-76.24-5.5-10.14-9.06-8.52-13.05-11.22-15.96s-10.46-8.3-15.1-6.25c13.37-9.71,34.19-12.4,49.39-2.59s42.92,29.12,52.73,29.22c2.91-.11.43,1.08.43,1.08Z"/>
    <path class="cls-1" d="M492.52,2041.64c-6.15-2.48-30.2-14.67-29.55-23.51.65-8.84,7.23-13.26,11.86-7.55,4.64,5.72,10.68,27.71,17.69,31.06Z"/>
    <path class="cls-1" d="M436.01,2059.33c-3.24,1.29-40.98,15.31-56.4,31.81-7.23,10.46-7.76,12.51-7.76,12.51,0-11,6.15-37.2,6.36-41.73s-1.19-5.93-1.19-5.93c2.8-.65,3.77-3.34,3.13-3.99,9.17,6.15,20.27,5.18,26.74,3.67,6.47-1.51,23.4-.75,29.12,3.67Z"/>
    <path class="cls-1" d="M329.68,2069.25c-3.13,3.13-12.19,26.42-14.34,33.97-2.16,7.55-11,16.61-18.66,13.26s-15.53-3.02-16.72,3.99l-1.19,7.01c-4.42-5.5-7.01-13.7-6.36-20.38s-6.15-19.09,15.64-37.42c18.55-11,23.83-10.89,31.06-8.63-10.89,4.64-26.21,16.07-28.69,24.37,22.11-17.79,38.18-25.45,39.25-16.18Z"/>
    <path class="cls-1" d="M291.61,2059c-9.17,5.07-33.11,7.66-43.14-3.24-9.81-11.75-7.66-20.17-12.73-19.63.54-2.7,8.84-15.31,19.84-8.84s26.64,29.87,36.02,31.7Z"/>
    <path class="cls-1" d="M236.4,1961.52c-7.12-9.06-32.46-40.01-31.38-52.09s-1.83-17.15,3.56-22.75c5.39-5.61,3.56-7.23,3.56-7.23,8.84,4.96,23.83,23.62,22.43,41.84s-2.37,33.21,1.83,40.22Z"/>
    <path class="cls-1" d="M1843.83,2951.61c20.43,35.74,43.91,35.74,63.32,69.45,19.4,33.7,28.6,40.85,38.81,59.23s15.32,34.72,2.04,42.89c-13.28,8.17-71.49,51.06-70.47,80.68,1.02,29.62,11.23,36.77,22.47,35.74s14.3-9.19,14.3-9.19c-5.11-1.02-6.13-14.3,4.09-20.43s27.57-20.43,36.77-30.64c9.19-10.21,6.13-42.89,6.13-42.89,10.21,40.85,10.21,72.51,20.43,74.55s29.62-9.19,41.87-15.32c-7.15-3.06-17.36-11.23-11.23-17.36s4.09-56.17-35.74-70.47c48,16.34,70.47,28.6,79.66,63.32,9.19,34.72,4.09,99.06-33.7,131.74s-56.17,46.98-84.77,51.06-45.96,8.17-42.89,10.21c12.26,12.26,29.62,1.02,49.02-3.06,19.4-4.09,17.36-4.09,24.51-8.17s15.83-14.81,15.83-14.81c8.17.51,20.43-3.57,31.15-14.3,10.72-10.72,29.62-26.04,38.3-39.83-15.32,27.06-17.87,45.96-17.87,50.04s-5.11,61.79,23.49,86.3,36.26,19.4,40.85,25.02,9.7,11.74,5.62,17.36c6.64-12.26-2.55-24-13.79-31.15s-37.79-33.7-37.79-74.55,7.66-73.53,11.23-82.72,21.45-75.06-20.43-133.79c-17.87-22.47-20.43-25.53-9.19-28.09s36.77,3.06,76.6-24.51,53.62-49.53,57.19-54.13c12.77-8.17,17.87-12.77,42.38-10.21s22.98-27.06,5.11-23.49-29.62,13.28-36.26,13.28-15.32-6.64-22.98-2.04-7.66,26.55-24,44.43-54.13,48-94.47,47.49-58.72-16.85-58.72-16.85c39.32,3.06,63.83,4.09,88.85-10.21,25.02-14.3,38.3-30.13,38.81-50.04,3.06-8.17,14.3-29.11,31.15-32.68-19.91-5.11-72-9.7-93.45,28.09-14.3,5.11-54.64,12.77-102.64-10.72s-91.91-73.02-92.43-82.21c14.3,12.77,57.19,54.64,93.45,54.64s42.89-7.15,49.53-19.4,14.3-16.85,23.49-13.28c-2.55-19.4-15.32-43.91-56.68-39.32-20.43,3.57-43.91,15.83-59.74,15.83s-24-4.6-24-4.6c21.45,2.04,40.85-4.6,49.02-18.89,8.17-14.3,5.62-29.62,5.62-29.62-8.68,2.55-16.85,2.55-16.85,2.55-2.55-7.15-14.3-9.19-28.6,0-14.3,9.19-25.02,22.47-25.02,22.47-1.53-18.89,7.15-39.83-60.26-56.68-40.85-16.85-47.49-21.96-47.49-30.13,12.26,10.21,31.15,24,48.51,21.96,17.36-2.04,52.09-19.4,52.09-19.4,2.55,0,5.11,3.57,5.11,3.57,4.6-8.68,9.19-27.57,3.57-36.26,11.74,0,20.43,0,22.47-6.13,2.04-6.13,1.53-24.51-14.81-36.26s-25.53-12.26-28.6-20.43-15.83-35.23-40.85-38.3c-25.02-3.06-66.38,14.81-70.98,60.77-.51-8.68-2.04-33.7,10.72-51.57s-5.11-32.68-22.98-30.64c-17.87,2.04-.51-19.4-.51-27.06s-18.38-26.55-41.36-3.06c-5.11,5.11,5.11,14.3-3.06,21.96s-34.72,27.57-22.98,51.57c11.74,24,35.23,51.57,35.23,51.57-19.91-3.57-35.74-7.66-41.87,0s-8.68,6.13-13.28,1.02-34.72,5.11-44.94,14.3-15.83,14.3-24.51,15.32c-9.19,5.11-14.3,32.17,1.02,41.87,15.32,9.7,12.77,17.36,13.28,19.4s9.19,13.79,28.09,9.7c18.89-4.09,30.64-18.38,38.3-27.57,7.66-9.19,27.06-48.51,41.36-52.09,14.3-3.57,33.7,0,33.7,0-21.96,3.57-34.21,17.36-34.21,28.6-6.64,2.55-12.77,13.79-10.21,20.94s13.28,7.15,18.38,4.09c5.11-3.06,8.17-11.74,8.17-11.74,7.66,5.11,28.6,10.72,42.38-3.06-4.09,11.23-2.04,11.23-4.09,11.23-8.68,0-16.85,6.64-18.38,7.15-16.34,2.04-77.11-2.04-82.72,5.62s-10.72,10.72-14.81,13.28-15.83,10.21-8.17,21.45-2.55,18.89-3.06,21.96.51,14.3,12.77,5.11,14.3-.51,14.3-.51c0,0-1.53,13.79,7.66,13.79,2.55-3.57,15.83-4.09,16.34,0,14.81-5.11,27.06-17.36,41.36-46.47,18.38-25.02,26.55-27.06,26.55-27.06-12.26,18.38-16.85,45.45-11.74,61.28,5.11,15.83,31.15,53.11,61.28,59.23,16.34,3.06,19.91-11.74,26.04-10.21,6.13,1.53,9.19,9.19,14.3,9.19,5.11-9.19,12.26-22.47,25.53-8.68Z"/>
    <path class="cls-1" d="M1715.15,2858.17c-6.13,7.66-31.66,50.04-42.38,54.64-10.72,4.6-13.28,12.77-26.04,8.68-12.77-4.09-17.36-17.36-17.36-17.36-15.32,8.17-20.94,8.17-20.94,8.17,2.55,42.38,4.6,53.11,28.09,53.62,6.64,5.11,2.55,7.66,3.57,18.89s20.43,16.34,20.43,16.34c6.64,28.6,31.15,59.23,52.09,59.23-12.26-4.09-42.38-37.79-28.6-56.68,6.13-3.06,18.38,1.53,28.6-1.53s15.83-19.4,15.83-19.4c1.53,9.19,21.96,4.09,26.55-9.19,10.21-1.53,14.3-2.55,16.85-7.15-22.47-8.68-80.17-49.02-56.68-108.26Z"/>
    <path class="cls-1" d="M1604.6,2913.57c-14.55,3.32-54.89,21.45-74.04,66.64-19.15,45.19-8.43,86.55,21.19,94.21,16.85,4.09,19.4-12,19.4-12-5.36,7.15-23.74,3.32-19.66-4.85,4.09-8.17,23.49-23.74,47.23-28.6s25.53-27.83,19.15-50.81-10.98-15.83-13.28-64.6Z"/>
    <path class="cls-1" d="M1602.3,2886.51c-6.13,10.98-41.87,45.7-108.26,34.72-52.85-24.26-69.19-50.55-54.38-84.51,15.83-30.38,35.23-7.66,30.89,4.09-.77-4.09-8.17-16.09-14.3-8.94-6.13,7.15-4.85,36.26,12.26,27.32,17.11-8.94,26.55-25.79,43.66-26.3s38.05,7.83,61.79,35.23c21.45,24.77,28.34,18.38,28.34,18.38Z"/>
    <path class="cls-1" d="M1481.02,2719.53c22.98-5.87,53.36-23.49,53.36-23.49,0,0,2.81,18.64,11.49,11.74,8.68-6.89-4.09-25.53,14.3-34.72s28.6-14.55,41.36-5.87c12.77,8.68,9.7,7.91,9.7,7.91,7.91-1.53,28.09-1.53,32.43,3.32-.77,6.89-5.87,13.79,2.55,28.6s32.43,43.15,32.43,43.15c-25.79-6.38-69.19-.51-77.87,4.34s-31.66,24.51-40.09,24c-8.43-.51-15.32-19.4-5.11-25.28s14.55-3.83,14.55-3.83c-5.36,1.53-4.6,6.13-2.55,6.38s8.17,0,8.94-6.89-12.77-13.79-21.19-12.77-15.06-2.81-15.06-2.81c8.68-3.32,13.02-24.26-59.23-13.79Z"/>
    <path class="cls-1" d="M1713.11,2781.57c-5.11,2.55-15.32,12-12.77,27.06,2.55,3.06,18.64,10.47,29.11,6.64-11.74-4.6-24.51-13.53-16.34-33.7Z"/>
    <path class="cls-1" d="M1832.34,2960.55c16.85,15.57,78.13,74.55,83.74,96.77,1.28,22.72-5.36,25.53-5.62,32.17-.26,6.64,2.55,22.21,10.47,25.28-27.32-4.34-55.15-25.79-61.53-55.4-6.38-29.62-16.34-85.28-27.83-97.02-3.57-3.32.77-1.79.77-1.79Z"/>
    <path class="cls-1" d="M1824.17,2963.1c4.34,10.21,18.38,53.11,7.15,62.81-11.23,9.7-24.26,7.15-22.98-5.11,1.28-12.26,20.17-45.45,15.83-57.7Z"/>
    <path class="cls-1" d="M1912,3009.06c5.36,2.3,66.64,30.38,104.43,29.11,20.94-3.83,24-5.62,24-5.62-13.02,13.02-51.32,36.77-56.94,41.87-5.62,5.11-5.62,8.43-5.62,8.43-4.09-2.55-8.43-.51-8.43,1.02-3.57-18.13-17.87-30.13-27.32-36s-28.6-26.81-30.13-38.81Z"/>
    <path class="cls-1" d="M2049.62,3123.19c7.4,0,45.7-16.85,57.19-23.23,11.49-6.38,32.68-6.64,37.79,6.38s14.81,21.96,24.51,15.06l9.7-6.89c-1.28,11.74-7.91,24.51-16.6,31.66-8.68,7.15-15.32,29.87-62.81,25.79-34.98-8.94-41.11-15.32-46.98-26.55,18.38,7.4,50.04,12,62.81,5.11-47.23-5.11-75.32-15.06-65.62-27.32Z"/>
    <path class="cls-1" d="M2082.56,3180.38c16.85,4.85,48.26,30.13,47.23,54.89-2.3,25.53-14.81,32.94-8.17,38.3-3.83,2.55-28.6,7.66-33.96-13.02-5.36-20.68,3.83-66.89-5.11-80.17Z"/>
    <path class="cls-1" d="M2032.51,3361.14c-2.3,19.15-8.94,85.79-24.51,98.81s-18.13,22.47-31.15,22.72-12.77,4.34-12.77,4.34c-4.6-16.34-.26-56.17,22.98-76.09s42.13-36.51,45.45-49.79Z"/>
    <path class="cls-1" d="M2025.11,3343.27c-1.79,9.19-17.11,35.74-34.21,38.3-4.09-.26-.77-7.91-6.38-8.68s-12.26-3.06-14.04,1.53c1.53-10.21,13.28-29.11,54.64-31.15Z"/>
    <path class="cls-1" d="M1890.56,2744.8c13.79-13.02,57.45-19.15,57.45-19.15,3.06,0,62.04-45.19,42.89-130.98,6.13,4.6,16.09,60.51,13.02,77.36,7.66-28.34,9.19-52.85,49.02-67.4s76.6,5.36,90.38,9.19,26.04-3.06,26.04-3.06c-9.96,11.49-22.98,9.19-75.83.77-52.85-8.43-79.66,61.28-79.66,61.28,0,0-51.06,52.6-61.79,56.17s-37.28,3.74-61.53,15.83Z"/>
    <path class="cls-1" d="M1897.2,2762.17c25.02-11.49,52.34-26.3,98.81-21.45,46.47,4.85,108.26,15.32,153.96,74.81,36.77,47.49,50.55,53.87,50.55,53.87-36-9.7-66.64-19.91-81.7-53.62-15.06-33.7-64.04-17.91-73.28-18.38-50.3-2.55-91.15-65.62-148.34-35.23Z"/>
    <path class="cls-1" d="M1991.92,2737.4c13.28-1.28,76.09-5.36,92.17,7.15,24.51,11.23,43.15,22.72,53.87,50.3-20.94-20.43-79.4-58.72-146.04-57.45Z"/>
    <path class="cls-1" d="M1735.58,2707.27c13.02-21.96,18.64-23.49,15.32-32.94s-15.83-18.13-15.83-18.13c-6.64-22.72,7.66-52.09,24.26-56.17-5.11,4.09,2.3,7.4,14.04,6.13s22.21-25.53,36.77-27.06c14.55-1.53,27.06,2.81,27.06,2.81-7.91,5.87-3.06,12.77-3.06,12.77,5.87,2.55,10.47,16.34,7.15,17.62,6.64,4.34,13.79,14.3-1.28,20.68-15.06,6.38,1.28,11.61,2.55,11.74,7.15.77,13.28-5.62,13.28-5.62-8.17,13.02-16.85,25.28-10.72,29.62s29.36,5.87,23.74,17.87c-5.62,12-32.17,14.55-32.17,14.55-14.81-18.64-27.54-31.55-63.06-21.7-21.19,5.87-38.04,27.83-38.04,27.83Z"/>
    <path class="cls-1" d="M547.16,2972.11c-39.72-10.83-56.33,5.78-93.88-4.33-37.55-10.11-49.11-8.67-69.33-14.44-20.22-5.78-35.39-13.72-31.77-28.89,3.61-15.17,14.44-86.66-7.22-106.88s-33.94-18.05-41.16-9.39-3.61,16.61-3.61,16.61c4.33-2.89,14.44,5.78,11.55,17.33-2.89,11.55-5.06,33.94-4.33,47.66s26,34.66,26,34.66c-36.11-21.66-58.49-44.05-67.16-38.27s-14.44,27.44-18.78,40.44c7.22-2.89,20.22-4.33,20.22,4.33s36.83,42.61,75.1,24.55c-45.5,22.39-70.05,29.61-101.1,11.55-31.05-18.05-72.94-67.16-69.33-116.99s6.5-72.94,23.83-96.05c17.33-23.11,26.72-38.27,23.11-37.55-17.33,0-21.66,20.22-32.5,36.83-10.83,16.61-9.39,15.17-11.55,23.11s-.72,21.66-.72,21.66c-6.14,5.42-11.92,16.97-11.92,32.14,0,15.17-2.53,39.36,1.08,55.24-8.3-29.97-19.86-45.13-22.75-48.02s-40.08-47.3-77.63-44.41-39.36,11.92-46.58,11.19-15.17-1.44-16.25-8.3c3.97,13.36,18.78,15.17,31.77,12.28,13-2.89,50.55-2.89,79.44,26,28.89,28.89,46.58,57.41,50.55,66.44,3.97,9.03,37.91,68.24,109.04,80.16,28.52,3.25,32.5,3.61,26.36,13.36s-28.16,23.83-36.83,71.49-2.89,72.94-2.17,78.71c-3.25,14.8-3.61,21.66-22.75,37.19s2.89,35.39,13,20.22c10.11-15.17,11.55-30.33,16.25-35.02s15.53-6.14,17.69-14.8c2.17-8.67-13.36-24.19-14.44-48.38-1.08-24.19,4.33-72.22,33.22-100.38,28.89-28.16,53.44-29.61,53.44-29.61-29.97,25.64-48.02,42.25-55.61,70.05-7.58,27.8-5.78,48.38,7.94,62.83,3.61,7.94,10.47,30.69,1.08,45.13,17.69-10.47,57.77-44.05,46.22-85.94,6.5-13.72,29.61-47.66,80.16-64.99,50.55-17.33,116.63-13.36,123.49-7.22-19.14,1.08-79.08,1.81-104.71,27.44s-25.28,35.39-21.3,48.75c3.97,13.36,1.81,22.03-7.22,26,15.53,11.92,41.88,20.22,67.88-12.28,11.92-16.97,19.86-42.25,31.05-53.44s20.22-13.72,20.22-13.72c-16.61,13.72-25.64,32.14-21.3,48.02,4.33,15.89,16.97,24.91,16.97,24.91,4.33-7.94,10.11-13.72,10.11-13.72,6.86,3.25,16.61-3.61,20.22-20.22,3.61-16.61,1.81-33.58,1.81-33.58,14.44,12.28,23.11,33.22,82.69-2.53,40.8-16.97,49.11-18.05,54.88-12.28-15.89,1.44-39,5.06-49.83,18.78-10.83,13.72-23.11,50.55-23.11,50.55-1.81,1.81-6.14,1.08-6.14,1.08,2.89,9.39,13,26,23.11,28.16-8.3,8.3-14.44,14.44-11.55,20.22,2.89,5.78,16.25,18.41,36.11,15.17,19.86-3.25,26.72-9.39,34.66-5.78s36.11,13.72,55.97-1.81c19.86-15.53,36.47-57.41,7.22-93.16,6.5,5.78,25.28,22.39,28.89,44.05,3.61,21.66,26.72,19.5,37.91,5.42,11.19-14.08,14.08,13.36,19.5,18.78s31.77,5.78,31.41-27.08c0-7.22-13.72-6.5-13.36-17.69.36-11.19,5.06-44.05-20.22-52.72-25.28-8.67-61.38-11.55-61.38-11.55,16.61-11.55,30.69-19.86,29.61-29.61-1.08-9.75,1.81-10.47,8.67-10.11s20.94-28.16,21.66-41.88c.72-13.72,1.08-21.3,6.5-28.16,2.89-10.11-12.64-32.86-30.33-28.89-17.69,3.97-21.3-3.25-23.11-4.33s-16.25-3.25-26.72,13c-10.47,16.25-8.67,34.66-7.58,46.58s15.17,53.44,7.58,66.08c-7.58,12.64-23.83,23.83-23.83,23.83,13-18.05,11.92-36.47,3.97-44.41,2.89-6.5-.72-18.78-7.58-22.03s-14.44,4.33-15.89,10.11c-1.44,5.78,2.53,14.08,2.53,14.08-9.03,1.81-27.8,12.64-27.8,32.14-5.06-10.83-6.5-9.39-5.06-10.83,6.14-6.14,7.22-16.61,7.94-18.05,10.11-13,55.97-53.08,54.52-62.47s0-15.17,1.08-19.86c1.08-4.69,3.97-18.41-9.39-20.94s-11.55-15.17-13.36-17.69c-1.81-2.53-10.47-9.75-12.64,5.42-2.17,15.17-9.75,10.47-9.75,10.47,0,0-8.67-10.83-15.17-4.33.72,4.33-8.3,14.08-11.55,11.55-6.86,14.08-6.86,31.41,3.61,62.11,4.69,30.69.36,37.91.36,37.91-4.33-21.66-20.22-44.05-35.02-51.63-14.8-7.58-59.58-15.53-85.21,1.44-13.72,9.39-5.78,22.39-11.19,25.64-5.42,3.25-13,0-16.61,3.61,2.89,10.11,7.22,24.55-11.92,24.19Z"/>
    <path class="cls-1" d="M704.23,2947.19c-1.08-9.75-13-57.77-8.67-68.6s.36-18.41,12.28-24.55,24.55,0,24.55,0c5.06-16.61,9.03-20.58,9.03-20.58-31.77-28.16-40.8-34.3-57.77-18.05-8.3,1.08-7.22-3.61-15.89-10.83s-26,2.89-26,2.89c-24.91-15.53-63.91-19.86-78.71-5.06,11.55-5.78,56.69-3.25,60.3,19.86-2.17,6.5-14.08,11.92-19.14,21.3s2.53,24.91,2.53,24.91c-7.58-5.42-18.41,12.64-12.28,25.28-6.14,8.3-8.3,11.92-6.86,16.97,22.03-9.75,91.35-22.03,116.63,36.47Z"/>
    <path class="cls-1" d="M743.23,2829.84c7.94-12.64,23.65-53.98,5.24-99.48-18.41-45.5-55.24-67.16-81.6-51.63-14.8,9.03-5.24,22.21-5.24,22.21-1.26-8.85,14.44-19.14,17.33-10.47,2.89,8.67.18,33.4-13.18,53.62-13.36,20.22,1.62,37.73,22.39,49.47,20.76,11.73,18.96,3.43,55.06,36.29Z"/>
    <path class="cls-1" d="M763.99,2847.35c-3.43-12.1-2.71-61.92,51.99-101.1,54.52-20.22,84.67-13.18,98.21,21.3,10.29,32.68-19.5,30.33-24.73,18.96,3.43,2.35,17.15,5.6,16.43-3.79-.72-9.39-22.21-29.07-27.98-10.65-5.78,18.41-.54,37.01-12.28,49.47-11.73,12.46-32.44,21.37-68.6,18.78-32.68-2.35-33.04,7.04-33.04,7.04Z"/>
    <path class="cls-1" d="M967.82,2879.67c-12.1,20.4-21.12,54.34-21.12,54.34,0,0-15.17-11.19-16.43-.18-1.26,11.01,20.94,15.17,14.44,34.66s-9.93,30.51-25.09,33.4c-15.17,2.89-12.46,1.26-12.46,1.26-4.51,6.68-18.78,20.94-25.28,20.58-4.33-5.42-5.6-13.9-22.03-18.41-16.43-4.51-53.44-7.58-53.44-7.58,22.75-13.72,49.29-48.56,51.99-58.13s5.06-39.72,11.37-45.32c6.32-5.6,24.55,2.89,21.48,14.26-3.07,11.37-7.58,13-7.58,13,2.71-4.87-1.08-7.58-2.71-6.32s-5.78,5.78-1.44,11.19,18.78.72,24.01-5.96,12.64-8.67,12.64-8.67c-3.79,8.49,7.94,26.36,51.63-32.14Z"/>
    <path class="cls-1" d="M759.84,2999.91c1.81-5.42,2.35-19.32-10.11-28.16-3.97-.36-20.58,5.78-25.28,15.89,11.55-5.06,26.9-7.76,35.39,12.28Z"/>
    <path class="cls-1" d="M548.97,2957.66c-22.93.9-107.96,2.53-127.64-9.21-16.97-15.17-14.26-21.85-18.78-26.72s-17.51-13.9-25.28-10.47c22.39-16.25,57.23-20.76,82.69-4.33,25.46,16.43,71.85,48.75,88.28,48.93,4.87-.18.72,1.81.72,1.81Z"/>
    <path class="cls-1" d="M552.94,2950.08c-10.29-4.15-50.55-24.55-49.47-39.36,1.08-14.8,12.1-22.21,19.86-12.64,7.76,9.57,17.87,46.4,29.61,51.99Z"/>
    <path class="cls-1" d="M458.34,2979.69c-5.42,2.17-68.6,25.64-94.42,53.26-12.1,17.51-13,20.94-13,20.94,0-18.41,10.29-62.29,10.65-69.87.36-7.58-1.99-9.93-1.99-9.93,4.69-1.08,6.32-5.6,5.24-6.68,15.35,10.29,33.94,8.67,44.77,6.14s39.18-1.26,48.75,6.14Z"/>
    <path class="cls-1" d="M660.36,3151.38c-.54,18.96-27.08,54.16-27.08,54.16-2.17,2.17-11.92,75.83,62.29,122.95-7.58,1.08-54.16-31.41-63.91-45.5,14.62,25.46,30.87,43.87,13,82.33-17.87,38.45-57.95,50.37-70.41,57.41-12.46,7.04-16.25,20.58-16.25,20.58-1.08-15.17,9.75-22.75,53.08-54.16,43.33-31.41,13-99.66,13-99.66,0,0-1.08-73.3,3.97-83.41s23.71-29.01,32.32-54.7Z"/>
    <path class="cls-1" d="M643.39,3143.8c-9.57,25.82-18.41,55.61-54.7,85.03-36.29,29.43-87.38,65.72-161.76,55.97-59.58-7.58-73.84-2.35-73.84-2.35,32.32-18.6,61.2-33.04,95.69-19.86,34.48,13.18,57.95-32.62,64.81-38.82,37.37-33.76,110.85-18.05,129.81-79.98Z"/>
    <path class="cls-1" d="M593.92,3228.29c-8.49,10.29-50.01,57.59-70.23,60.12-25.28,9.39-46.58,14.44-73.66,2.53,29.25-.36,97.67-14.62,143.89-62.65Z"/>
    <path class="cls-1" d="M796.49,3068.33c6.32,24.73,3.43,29.79,12.46,34.12s24.01,1.62,24.01,1.62c20.76,11.37,31.41,42.25,22.57,56.87.72-6.5-6.86-3.61-14.26,5.6-7.4,9.21,2.35,33.76-6.86,45.13-9.21,11.37-21.12,17.15-21.12,17.15,1.44-9.75-6.86-11.19-6.86-11.19-5.96,2.35-18.96-4.15-17.51-7.4-7.76,1.62-19.86-.36-13.72-15.53,6.14-15.17-9.12-7.3-10.11-6.5-5.6,4.51-5.42,13.36-5.42,13.36-3.43-14.98-5.96-29.79-13.36-28.52-7.4,1.26-24.91,16.61-29.43,4.15s12.46-33.04,12.46-33.04c23.65,2.71,41.78,2.83,59.94-29.25,10.83-19.14,7.22-46.58,7.22-46.58Z"/>
    <path class="cls-1" d="M1875.66,2237.41c-14.04-24.57-30.19-24.57-43.52-47.74-13.34-23.17-19.66-28.08-26.68-40.72-7.02-12.64-10.53-23.87-1.4-29.48,9.13-5.62,49.14-35.1,48.44-55.46s-7.72-25.27-15.44-24.57c-7.72.7-9.83,6.32-9.83,6.32,3.51.7,4.21,9.83-2.81,14.04s-18.95,14.04-25.27,21.06c-6.32,7.02-4.21,29.48-4.21,29.48-7.02-28.08-7.02-49.84-14.04-51.25-7.02-1.4-20.36,6.32-28.78,10.53,4.91,2.11,11.93,7.72,7.72,11.93s-2.81,38.61,24.57,48.44c-32.99-11.23-48.44-19.66-54.76-43.52-6.32-23.87-2.81-68.09,23.17-90.56,25.97-22.46,38.61-32.29,58.27-35.1,19.66-2.81,31.59-5.62,29.48-7.02-8.42-8.42-20.36-.7-33.7,2.11-13.34,2.81-11.93,2.81-16.85,5.62-4.91,2.81-10.88,10.18-10.88,10.18-5.62-.35-14.04,2.46-21.41,9.83-7.37,7.37-20.36,17.9-26.32,27.38,10.53-18.6,12.28-31.59,12.28-34.4s3.51-42.47-16.15-59.32c-19.66-16.85-24.92-13.34-28.08-17.2s-6.67-8.07-3.86-11.93c-4.56,8.42,1.75,16.5,9.48,21.41s25.97,23.17,25.97,51.25c0,28.08-5.26,50.54-7.72,56.86s-14.74,51.6,14.04,91.96c12.28,15.44,14.04,17.55,6.32,19.3s-25.27-2.11-52.65,16.85c-27.38,18.95-36.85,34.05-39.31,37.21-8.77,5.62-12.28,8.77-29.13,7.02-16.85-1.75-15.79,18.6-3.51,16.15,12.28-2.46,20.36-9.13,24.92-9.13s10.53,4.56,15.79,1.4,5.26-18.25,16.5-30.54c11.23-12.28,37.21-32.99,64.93-32.64,27.73.35,40.36,11.58,40.36,11.58-27.03-2.11-43.87-2.81-61.07,7.02-17.2,9.83-26.32,20.71-26.68,34.4-2.11,5.62-9.83,20.01-21.41,22.46,13.69,3.51,49.49,6.67,64.23-19.3,9.83-3.51,37.56-8.77,70.55,7.37,32.99,16.15,63.18,50.19,63.53,56.51-9.83-8.77-39.31-37.56-64.23-37.56s-29.48,4.91-34.05,13.34c-4.56,8.42-9.83,11.58-16.15,9.13,1.75,13.34,10.53,30.19,38.96,27.03,14.04-2.46,30.19-10.88,41.07-10.88s16.5,3.16,16.5,3.16c-14.74-1.4-28.08,3.16-33.7,12.99-5.62,9.83-3.86,20.36-3.86,20.36,5.97-1.75,11.58-1.75,11.58-1.75,1.75,4.91,9.83,6.32,19.66,0,9.83-6.32,17.2-15.44,17.2-15.44,1.05,12.99-4.91,27.38,41.42,38.96,28.08,11.58,32.64,15.09,32.64,20.71-8.42-7.02-21.41-16.5-33.34-15.09-11.93,1.4-35.8,13.34-35.8,13.34-1.75,0-3.51-2.46-3.51-2.46-3.16,5.97-6.32,18.95-2.46,24.92-8.07,0-14.04,0-15.44,4.21-1.4,4.21-1.05,16.85,10.18,24.92,11.23,8.07,17.55,8.42,19.66,14.04,2.11,5.62,10.88,24.22,28.08,26.32,17.2,2.11,45.63-10.18,48.79-41.77.35,5.97,1.4,23.17-7.37,35.45s3.51,22.46,15.79,21.06c12.28-1.4.35,13.34.35,18.6s12.64,18.25,28.43,2.11c3.51-3.51-3.51-9.83,2.11-15.09,5.62-5.26,23.87-18.95,15.79-35.45-8.07-16.5-24.22-35.45-24.22-35.45,13.69,2.46,24.57,5.26,28.78,0s5.97-4.21,9.13-.7,23.87-3.51,30.89-9.83c7.02-6.32,10.88-9.83,16.85-10.53,6.32-3.51,9.83-22.11-.7-28.78s-8.77-11.93-9.13-13.34-6.32-9.48-19.3-6.67-21.06,12.64-26.32,18.95c-5.26,6.32-18.6,33.34-28.43,35.8-9.83,2.46-23.17,0-23.17,0,15.09-2.46,23.52-11.93,23.52-19.66,4.56-1.75,8.77-9.48,7.02-14.39s-9.13-4.91-12.64-2.81-5.62,8.07-5.62,8.07c-5.26-3.51-19.66-7.37-29.13,2.11,2.81-7.72,1.4-7.72,2.81-7.72,5.97,0,11.58-4.56,12.64-4.91,11.23-1.4,53,1.4,56.86-3.86s7.37-7.37,10.18-9.13,10.88-7.02,5.62-14.74c-5.26-7.72,1.75-12.99,2.11-15.09.35-2.11-.35-9.83-8.77-3.51-8.42,6.32-9.83.35-9.83.35,0,0,1.05-9.48-5.26-9.48-1.75,2.46-10.88,2.81-11.23,0-10.18,3.51-18.6,11.93-28.43,31.94-12.64,17.2-18.25,18.6-18.25,18.6,8.42-12.64,11.58-31.24,8.07-42.12-3.51-10.88-21.41-36.5-42.12-40.72-11.23-2.11-13.69,8.07-17.9,7.02s-6.32-6.32-9.83-6.32c-3.51,6.32-8.42,15.44-17.55,5.97Z"/>
    <path class="cls-1" d="M1964.12,2301.64c4.21-5.26,21.76-34.4,29.13-37.56s9.13-8.77,17.9-5.97,11.93,11.93,11.93,11.93c10.53-5.62,14.39-5.62,14.39-5.62-1.75-29.13-3.16-36.5-19.3-36.85-4.56-3.51-1.75-5.26-2.46-12.99s-14.04-11.23-14.04-11.23c-4.56-19.66-21.41-40.72-35.8-40.72,8.42,2.81,29.13,25.97,19.66,38.96-4.21,2.11-12.64-1.05-19.66,1.05s-10.88,13.34-10.88,13.34c-1.05-6.32-15.09-2.81-18.25,6.32-7.02,1.05-9.83,1.75-11.58,4.91,15.44,5.97,55.11,33.7,38.96,74.41Z"/>
    <path class="cls-1" d="M2040.11,2263.56c10-2.28,37.73-14.74,50.89-45.81,13.16-31.06,5.79-59.49-14.57-64.76-11.58-2.81-13.34,8.25-13.34,8.25,3.69-4.91,16.32-2.28,13.51,3.33s-16.15,16.32-32.47,19.66c-16.32,3.33-17.55,19.13-13.16,34.92s7.55,10.88,9.13,44.4Z"/>
    <path class="cls-1" d="M2041.69,2282.16c4.21-7.55,28.78-31.41,74.41-23.87,36.33,16.67,47.56,34.75,37.38,58.09-10.88,20.88-24.22,5.26-21.24-2.81.53,2.81,5.62,11.06,9.83,6.14,4.21-4.91,3.33-24.92-8.42-18.78-11.76,6.14-18.25,17.73-30.01,18.08-11.76.35-26.16-5.38-42.47-24.22-14.74-17.02-19.48-12.64-19.48-12.64Z"/>
    <path class="cls-1" d="M2125.05,2396.94c-15.79,4.04-36.68,16.15-36.68,16.15,0,0-1.93-12.81-7.9-8.07-5.97,4.74,2.81,17.55-9.83,23.87-12.64,6.32-19.66,10-28.43,4.04-8.77-5.97-6.67-5.44-6.67-5.44-5.44,1.05-19.3,1.05-22.29-2.28.53-4.74,4.04-9.48-1.75-19.66-5.79-10.18-22.29-29.66-22.29-29.66,17.73,4.39,47.56.35,53.53-2.98s21.76-16.85,27.55-16.5,10.53,13.34,3.51,17.37-10,2.63-10,2.63c3.69-1.05,3.16-4.21,1.75-4.39s-5.62,0-6.14,4.74,8.77,9.48,14.57,8.77,10.35,1.93,10.35,1.93c-5.97,2.28-8.95,16.67,40.72,9.48Z"/>
    <path class="cls-1" d="M1965.52,2354.29c3.51-1.75,10.53-8.25,8.77-18.6-1.75-2.11-12.81-7.2-20.01-4.56,8.07,3.16,16.85,9.3,11.23,23.17Z"/>
    <path class="cls-1" d="M1883.56,2231.26c-11.58-10.71-53.7-51.25-57.56-66.51-.88-15.62,3.69-17.55,3.86-22.11s-1.75-15.27-7.2-17.37c18.78,2.98,37.91,17.73,42.3,38.08,4.39,20.36,11.23,58.62,19.13,66.69,2.46,2.28-.53,1.23-.53,1.23Z"/>
    <path class="cls-1" d="M1889.18,2229.51c-2.98-7.02-12.64-36.5-4.91-43.17,7.72-6.67,16.67-4.91,15.79,3.51s-13.86,31.24-10.88,39.66Z"/>
    <path class="cls-1" d="M1828.81,2197.92c-3.69-1.58-45.81-20.88-71.78-20.01-14.39,2.63-16.5,3.86-16.5,3.86,8.95-8.95,35.28-25.27,39.14-28.78s3.86-5.79,3.86-5.79c2.81,1.75,5.79.35,5.79-.7,2.46,12.46,12.28,20.71,18.78,24.75s19.66,18.43,20.71,26.68Z"/>
    <path class="cls-1" d="M1843.55,2379.56c-9.48,8.95-39.49,13.16-39.49,13.16-2.11,0-42.65,31.06-29.48,90.03-4.21-3.16-11.06-41.59-8.95-53.18-5.26,19.48-6.32,36.33-33.7,46.33-27.38,10-52.65-3.69-62.13-6.32-9.48-2.63-17.9,2.11-17.9,2.11,6.84-7.9,15.79-6.32,52.12-.53,36.33,5.79,54.76-42.12,54.76-42.12,0,0,35.1-36.15,42.47-38.61s25.62-2.57,42.3-10.88Z"/>
    <path class="cls-1" d="M1838.98,2367.63c-17.2,7.9-35.98,18.08-67.92,14.74s-74.41-10.53-105.83-51.42c-25.27-32.64-34.75-37.03-34.75-37.03,24.75,6.67,45.81,13.69,56.16,36.85,10.35,23.17,44.02,12.31,50.37,12.64,34.57,1.75,62.65,45.1,101.97,24.22Z"/>
    <path class="cls-1" d="M1773.87,2384.65c-9.13.88-52.3,3.69-63.36-4.91-16.85-7.72-29.66-15.62-37.03-34.57,14.39,14.04,54.58,40.36,100.39,39.49Z"/>
    <path class="cls-1" d="M1950.08,2405.36c-8.95,15.09-12.81,16.15-10.53,22.64s10.88,12.46,10.88,12.46c4.56,15.62-5.26,35.8-16.67,38.61,3.51-2.81-1.58-5.09-9.65-4.21-8.07.88-15.27,17.55-25.27,18.6-10,1.05-18.6-1.93-18.6-1.93,5.44-4.04,2.11-8.77,2.11-8.77-4.04-1.75-7.2-11.23-4.91-12.11-4.56-2.98-9.48-9.83.88-14.22s-.88-7.98-1.75-8.07c-4.91-.53-9.13,3.86-9.13,3.86,5.62-8.95,11.58-17.37,7.37-20.36-4.21-2.98-20.18-4.04-16.32-12.28,3.86-8.25,22.11-10,22.11-10,10.18,12.81,18.93,21.68,43.35,14.92,14.57-4.04,26.15-19.13,26.15-19.13Z"/>
    <path class="cls-1" d="M1699.92,3546.84c-11.92-15.17-54.34-66.98-52.54-87.2,1.81-20.22-3.07-28.71,5.96-38.09,9.03-9.39,5.96-12.1,5.96-12.1,14.8,8.3,39.9,39.54,37.55,70.05-2.35,30.51-3.97,55.61,3.07,67.34Z"/>
    <path class="cls-1" d="M247.07,1965.94c-3.13-4.64-7.87-22.32-1.73-30.63,1.83-1.62,3.67,3.02,6.36.97s6.47-3.88,5.28-6.58c3.67,4.96,6.69,17.9-9.92,36.23Z"/>
    <path class="cls-1" d="M556.68,2161.88c-.32,11.32-16.18,32.35-16.18,32.35-1.29,1.29-7.12,45.29,37.2,73.44-4.53.65-32.35-18.76-38.18-27.18,8.74,15.21,18.44,26.21,7.76,49.17-10.68,22.97-34.62,30.09-42.06,34.29s-9.71,12.29-9.71,12.29c-.65-9.06,5.82-13.59,31.7-32.35s7.76-59.53,7.76-59.53c0,0-.65-43.78,2.37-49.82s14.16-17.33,19.3-32.68Z"/>
    <path class="cls-1" d="M546.54,2157.35c-5.72,15.42-11,33.21-32.68,50.79-21.68,17.58-52.19,39.25-96.62,33.43-35.59-4.53-44.11-1.4-44.11-1.4,19.3-11.11,36.56-19.73,57.15-11.86,20.6,7.87,34.62-19.48,38.71-23.19,22.32-20.17,66.21-10.78,77.54-47.77Z"/>
    <path class="cls-1" d="M517,2207.82c-5.07,6.15-29.87,34.4-41.95,35.91-15.1,5.61-27.82,8.63-44,1.51,17.47-.22,58.34-8.74,85.95-37.42Z"/>
    <path class="cls-1" d="M658.72,1645.72c-12.51,14.25-55.41,24.43-55.41,24.43-3.05.29-57.55,50.79-30.48,134.41-6.53-4-21.66-58.74-20.19-75.81-4.98,28.93-4.22,53.48-42.51,71.69-38.3,18.21-76.76,1.81-90.85-.71-14.08-2.53-25.64,5.48-25.64,5.48,8.84-12.37,22.02-11.3,75.43-7.84,53.41,3.46,73.59-68.45,73.59-68.45,0,0,45.93-57.13,56.27-61.69,10.34-4.56,36.76-7.21,59.79-21.5Z"/>
    <path class="cls-1" d="M650.49,1629.05c-23.84,13.77-49.66,31.07-96.37,30.58-46.72-.49-109.21-5.15-160.27-60.11-41.04-43.85-55.36-48.92-55.36-48.92,36.75,6.3,68.21,13.61,86.35,45.76,18.14,32.15,65.43,11.86,74.67,11.46,50.32-2.15,96.88,56.82,150.98,21.23Z"/>
    <path class="cls-1" d="M558.49,1662.55c-13.1,2.51-75.25,12.44-92.44,1.49-25.45-8.9-45.08-18.6-58.33-45.05,22.75,18.38,84.54,51.05,150.77,43.56Z"/>
    <path class="cls-1" d="M637.99,2112.28c3.77,14.77,2.05,17.79,7.44,20.38s14.34.97,14.34.97c12.4,6.79,18.76,25.23,13.48,33.97.43-3.88-4.1-2.16-8.52,3.34s1.4,20.17-4.1,26.96c-5.5,6.79-12.62,10.24-12.62,10.24.86-5.82-4.1-6.69-4.1-6.69-3.56,1.4-11.32-2.48-10.46-4.42-4.64.97-11.86-.22-8.2-9.27,3.67-9.06-5.45-4.36-6.04-3.88-3.34,2.7-3.24,7.98-3.24,7.98-2.05-8.95-3.56-17.79-7.98-17.04s-14.88,9.92-17.58,2.48,7.44-19.73,7.44-19.73c14.13,1.62,24.96,1.69,35.8-17.47,6.47-11.43,4.31-27.82,4.31-27.82Z"/>
    <path class="cls-1" d="M1168.63,2774.56c-6.47,23.72,3.45,33.65-2.59,56.08s-5.18,29.33-8.63,41.41c-3.45,12.08-8.2,21.14-17.25,18.98s-51.76-8.63-63.84,4.31c-12.08,12.94-10.78,20.27-5.61,24.59s9.92,2.16,9.92,2.16c-1.73-2.59,3.45-8.63,10.35-6.9,6.9,1.73,20.27,3.02,28.47,2.59s20.71-15.53,20.71-15.53c-12.94,21.57-26.31,34.94-22.86,40.12s16.39,8.63,24.16,11.22c-1.73-4.31-2.59-12.08,2.59-12.08s25.45-22,14.67-44.86c13.37,27.18,17.69,41.84,6.9,60.39-10.78,18.55-40.12,43.57-69.88,41.41s-43.57-3.88-57.37-14.23c-13.8-10.35-22.86-15.96-22.43-13.8,0,10.35,12.08,12.94,22,19.41s9.06,5.61,13.8,6.9,12.94.43,12.94.43c3.24,3.67,10.14,7.12,19.2,7.12s23.51,1.51,33-.65c-17.9,4.96-26.96,11.86-28.69,13.59s-28.25,23.94-26.53,46.37,7.12,23.51,6.69,27.82-.86,9.06-4.96,9.71c7.98-2.37,9.06-11.22,7.33-18.98s-1.73-30.2,15.53-47.45,34.29-27.82,39.68-30.2,40.76-22.65,47.88-65.14c1.94-17.04,2.16-19.41,7.98-15.74s14.23,16.82,42.7,22c28.47,5.18,43.57,1.73,47.02,1.29,8.84,1.94,12.94,2.16,22.21,13.59s21.14-1.73,12.08-7.76-18.12-6.9-20.92-9.71-3.67-9.27-8.84-10.57-14.45,7.98-28.9,8.63c-14.45.65-43.14-2.59-59.96-19.84-16.82-17.25-17.69-31.92-17.69-31.92,15.31,17.9,25.23,28.69,41.84,33.21,16.61,4.53,28.9,3.45,37.53-4.74,4.74-2.16,18.33-6.25,26.96-.65-6.25-10.57-26.31-34.51-51.33-27.61-8.2-3.88-28.47-17.69-38.82-47.88-10.35-30.2-7.98-69.66-4.31-73.76.65,11.43,1.08,47.23,16.39,62.55,15.31,15.31,21.14,15.1,29.12,12.73,7.98-2.37,13.16-1.08,15.53,4.31,7.12-9.27,12.08-25.02-7.33-40.55-10.14-7.12-25.23-11.86-31.92-18.55-6.69-6.69-8.2-12.08-8.2-12.08,8.2,9.92,19.2,15.31,28.69,12.73s14.88-10.14,14.88-10.14c-4.74-2.59-8.2-6.04-8.2-6.04,1.94-4.1-2.16-9.92-12.08-12.08s-20.06-1.08-20.06-1.08c7.33-8.63,19.84-13.8-1.51-49.39-10.14-24.37-10.78-29.33-7.33-32.78.86,9.49,3.02,23.29,11.22,29.76,8.2,6.47,30.2,13.8,30.2,13.8,1.08,1.08.65,3.67.65,3.67,5.61-1.73,15.53-7.76,16.82-13.8,4.96,4.96,8.63,8.63,12.08,6.9,3.45-1.73,11-9.71,9.06-21.57s-5.61-15.96-3.45-20.71c2.16-4.74,8.2-21.57-1.08-33.43-9.27-11.86-34.29-21.78-55.65-4.31,3.45-3.88,13.37-15.1,26.31-17.25,12.94-2.16,11.65-15.96,3.24-22.65s7.98-8.41,11.22-11.65c3.24-3.24,3.45-18.98-16.18-18.76-4.31,0-3.88,8.2-10.57,7.98-6.69-.22-26.31-3.02-31.49,12.08-5.18,15.1-6.9,36.67-6.9,36.67-6.9-9.92-11.86-18.33-17.69-17.69-5.82.65-6.25-1.08-6.04-5.18s-16.82-12.51-25.02-12.94-12.73-.65-16.82-3.88c-6.04-1.73-19.63,7.55-17.25,18.12,2.37,10.57-1.94,12.73-2.59,13.8s-1.94,9.71,7.76,15.96c9.71,6.25,20.71,5.18,27.82,4.53,7.12-.65,31.92-9.06,39.47-4.53,7.55,4.53,14.23,14.23,14.23,14.23-10.78-7.76-21.78-7.12-26.53-2.37-3.88-1.73-11.22.43-13.16,4.53s2.59,8.63,6.04,9.49c3.45.86,8.41-1.51,8.41-1.51,1.08,5.39,7.55,16.61,19.2,16.61-6.47,3.02-5.61,3.88-6.47,3.02-3.67-3.67-9.92-4.31-10.78-4.74-7.76-6.04-31.7-33.43-37.31-32.57-5.61.86-9.06,0-11.86-.65s-11-2.37-12.51,5.61c-1.51,7.98-9.06,6.9-10.57,7.98s-5.82,6.25,3.24,7.55c9.06,1.29,6.25,5.82,6.25,5.82,0,0-6.47,5.18-2.59,9.06,2.59-.43,8.41,4.96,6.9,6.9,8.41,4.1,18.76,4.1,37.1-2.16,18.33-2.8,22.65-.22,22.65-.22-12.94,2.59-26.31,12.08-30.84,20.92-4.53,8.84-9.27,35.59.86,50.9,5.61,8.2,13.37,3.45,15.31,6.69s0,7.76,2.16,9.92c6.04-1.73,14.67-4.31,14.45,7.12Z"/>
    <path class="cls-1" d="M1153.74,2680.74c-5.82.65-34.51,7.76-40.98,5.18-6.47-2.59-11-.22-14.67-7.33s0-14.67,0-14.67c-9.92-3.02-12.29-5.39-12.29-5.39-16.82,18.98-20.49,24.37-10.78,34.51.65,4.96-2.16,4.31-6.47,9.49s1.73,15.53,1.73,15.53c-9.27,14.88-11.86,38.18-3.02,47.02-3.45-6.9-1.94-33.86,11.86-36.02,3.88,1.29,7.12,8.41,12.73,11.43,5.61,3.02,14.88-1.51,14.88-1.51-3.24,4.53,7.55,11,15.1,7.33,4.96,3.67,7.12,4.96,10.14,4.1-5.82-13.16-13.16-54.57,21.78-69.66Z"/>
    <path class="cls-1" d="M1083.65,2657.45c-7.55-4.74-32.24-14.13-59.42-3.13s-40.12,33-30.84,48.74c5.39,8.84,13.26,3.13,13.26,3.13-5.28.75-11.43-8.63-6.25-10.35s19.95-.11,32.03,7.87c12.08,7.98,22.54-.97,29.55-13.37,7.01-12.4,2.05-11.32,21.68-32.89Z"/>
    <path class="cls-1" d="M1094.11,2645.05c-7.23,2.05-36.99,1.62-60.39-31.06-12.08-32.57-7.87-50.58,12.73-58.66,19.52-6.15,18.12,11.65,11.32,14.77,1.4-2.05,3.34-10.24-2.26-9.81-5.61.43-17.36,13.26-6.36,16.72s22.11.32,29.55,7.33c7.44,7.01,12.77,19.38,11.22,40.98-1.4,19.52,4.21,19.73,4.21,19.73Z"/>
    <path class="cls-1" d="M1113.41,2523.3c12.19,7.23,32.46,12.62,32.46,12.62,0,0-6.69,9.06-.11,9.81,6.58.75,9.06-12.51,20.71-8.63s18.22,5.93,19.95,14.99.75,7.44.75,7.44c3.99,2.7,12.51,11.22,12.29,15.1-3.24,2.59-8.3,3.34-11,13.16-2.7,9.81-4.53,31.92-4.53,31.92-8.2-13.59-29.01-29.44-34.72-31.06-5.72-1.62-23.72-3.02-27.07-6.79s1.73-14.67,8.52-12.83c6.79,1.83,7.76,4.53,7.76,4.53-2.91-1.62-4.53.65-3.77,1.62s3.45,3.45,6.69.86.43-11.22-3.56-14.34c-3.99-3.13-5.18-7.55-5.18-7.55,5.07,2.26,15.74-4.74-19.2-30.84Z"/>
    <path class="cls-1" d="M1185.23,2647.53c-3.24-1.08-11.54-1.4-16.82,6.04-.22,2.37,3.45,12.29,9.49,15.1-3.02-6.9-4.64-16.07,7.33-21.14Z"/>
    <path class="cls-1" d="M1160,2773.48c.54,13.7,1.51,64.49-5.5,76.24-9.06,10.14-13.05,8.52-15.96,11.22s-8.3,10.46-6.25,15.1c-9.71-13.37-12.4-34.19-2.59-49.39s29.12-42.92,29.22-52.73c-.11-2.91,1.08-.43,1.08-.43Z"/>
    <path class="cls-1" d="M1155.47,2771.11c-2.48,6.15-14.67,30.2-23.51,29.55-8.84-.65-13.26-7.23-7.55-11.86,5.72-4.64,27.71-10.68,31.06-17.69Z"/>
    <path class="cls-1" d="M1173.16,2827.62c1.29,3.24,15.31,40.98,31.81,56.4,10.46,7.23,12.51,7.76,12.51,7.76-11,0-37.2-6.15-41.73-6.36-4.53-.22-5.93,1.19-5.93,1.19-.65-2.8-3.34-3.77-3.99-3.13,6.15-9.17,5.18-20.27,3.67-26.74-1.51-6.47-.75-23.4,3.67-29.12Z"/>
    <path class="cls-1" d="M1183.08,2933.95c3.13,3.13,26.42,12.19,33.97,14.34,7.55,2.16,16.61,11,13.26,18.66s-3.02,15.53,3.99,16.72l7.01,1.19c-5.5,4.42-13.7,7.01-20.38,6.36s-19.09,6.15-37.42-15.64c-11-18.55-10.89-23.83-8.63-31.06,4.64,10.89,16.07,26.21,24.37,28.69-17.79-22.11-25.45-38.18-16.18-39.25Z"/>
    <path class="cls-1" d="M1172.83,2972.02c5.07,9.17,7.66,33.11-3.24,43.14-11.75,9.81-20.17,7.66-19.63,12.73-2.7-.54-15.31-8.84-8.84-19.84s29.87-26.64,31.7-36.02Z"/>
    <path class="cls-1" d="M1075.34,3027.23c-9.06,7.12-40.01,32.46-52.09,31.38s-17.15,1.83-22.75-3.56c-5.61-5.39-7.23-3.56-7.23-3.56,4.96-8.84,23.62-23.83,41.84-22.43,18.22,1.4,33.21,2.37,40.22-1.83Z"/>
    <path class="cls-1" d="M1079.77,3016.55c-4.64,3.13-22.32,7.87-30.63,1.73-1.62-1.83,3.02-3.67.97-6.36-2.05-2.7-3.88-6.47-6.58-5.28,4.96-3.67,17.9-6.69,36.23,9.92Z"/>
    <path class="cls-1" d="M1275.71,2706.95c11.32.32,32.35,16.18,32.35,16.18,1.29,1.29,45.29,7.12,73.44-37.2.65,4.53-18.76,32.35-27.18,38.18,15.21-8.74,26.21-18.44,49.17-7.76,22.97,10.68,30.09,34.62,34.29,42.06s12.29,9.71,12.29,9.71c-9.06.65-13.59-5.82-32.35-31.7-18.76-25.88-59.53-7.76-59.53-7.76,0,0-43.78.65-49.82-2.37s-17.33-14.16-32.68-19.3Z"/>
    <path class="cls-1" d="M1271.18,2717.08c15.42,5.72,33.21,11,50.79,32.68,17.58,21.68,39.25,52.19,33.43,96.62-4.53,35.59-1.4,44.11-1.4,44.11-11.11-19.3-19.73-36.56-11.86-57.15,7.87-20.6-19.48-34.62-23.19-38.71-20.17-22.32-10.78-66.21-47.77-77.54Z"/>
    <path class="cls-1" d="M1321.65,2746.63c6.15,5.07,34.4,29.87,35.91,41.95,5.61,15.1,8.63,27.82,1.51,44-.22-17.47-8.74-58.34-37.42-85.95Z"/>
    <path class="cls-1" d="M1226.1,2625.63c14.77-3.77,17.79-2.05,20.38-7.44s.97-14.34.97-14.34c6.79-12.4,25.23-18.76,33.97-13.48-3.88-.43-2.16,4.1,3.34,8.52,5.5,4.42,20.17-1.4,26.96,4.1,6.79,5.5,10.24,12.62,10.24,12.62-5.82-.86-6.69,4.1-6.69,4.1,1.4,3.56-2.48,11.32-4.42,10.46.97,4.64-.22,11.86-9.27,8.2-9.06-3.67-4.36,5.45-3.88,6.04,2.7,3.34,7.98,3.24,7.98,3.24-8.95,2.05-17.79,3.56-17.04,7.98.75,4.42,9.92,14.88,2.48,17.58-7.44,2.7-19.73-7.44-19.73-7.44,1.62-14.13,1.69-24.96-17.47-35.8-11.43-6.47-27.82-4.31-27.82-4.31Z"/>
    <path class="cls-1" d="M1146.53,2008.87c-27.89,29.67-21.09,51.88-47.34,79.99-26.25,28.11-30.35,38.87-44.78,53.86-14.43,14.98-28.4,24.54-39.97,14.35-11.57-10.19-69-52.82-96.71-43.28-27.71,9.54-31.52,21.27-27.3,31.6,4.22,10.33,12.83,10.86,12.83,10.86-.51-5.12,11.75-9.94,20.5-2.05,8.75,7.88,27.3,20.16,39.62,25.9,12.32,5.73,42.34-6.63,42.34-6.63-35.68,21.49-65.62,30.66-64.59,40.91s17.27,25.35,26.61,35.16c.83-7.65,5.6-19.67,13.17-15.65,7.57,4.02,54.3-12.4,56.29-54.21-1.55,50.13-6.64,74.92-36.81,93.67-30.18,18.75-92.5,32.55-134.35,6.28-41.85-26.27-60.7-39.52-72.84-65.38-12.14-25.86-21.04-41.1-22.08-37.61-8.04,15.14,7.61,28.31,17.09,45.47s8.89,15.24,14.83,20.81,18.59,10.68,18.59,10.68c1.88,7.87,9.3,18.28,22.54,25.32,13.25,7.04,33.21,20.47,48.76,24.68-30.03-6.65-48.64-3.59-52.5-2.41-3.86,1.18-59.91,13.06-74.81,47.21s-7.85,39.91-11.83,45.88c-3.98,5.97-8.3,12.58-14.79,10.34,13.51,2.73,21.96-9.37,25.47-22.06,3.51-12.69,20.93-45.5,59.56-57.33,38.63-11.83,71.76-14.05,81.49-13.33,9.73.72,77.2-1.46,120.61-58.06,16.07-23.41,18.23-26.71,23.9-16.83,5.67,9.88,7.75,35.66,45.36,65.34,37.61,29.68,62.37,36.36,67.75,38.41,11.42,9.71,17.25,13.21,21.93,37.12,4.68,23.92,32.25,13.89,23.69-1.97-8.56-15.87-21.13-24.16-23.06-30.44s1.84-16.41-4.72-22.32c-6.56-5.91-27.33.45-48.96-9.83-21.63-10.28-61.07-37.29-72.27-75.59-11.2-38.3-1.07-60.42-1.07-60.42,8.49,38.07,14.62,61.55,35.39,81.07,20.77,19.52,39.58,27.49,58.57,22.21,8.61.53,31.67,5.09,39.93,19.99-.94-20.31-11.68-70.9-53.62-80.24-8.97-12.04-27.9-47.98-19.58-100.17,8.31-52.2,42.44-108.07,50.98-111.22-7.93,17.22-35.11,69.91-24.61,104.2,10.5,34.29,19.18,38.49,32.7,41.22,13.51,2.73,20.08,8.64,19.36,18.37,17.61-8.03,37.09-27.21,20.77-64.99-9.3-18.28-27.69-36.95-32.27-51.92-4.58-14.97-2.6-24.03-2.6-24.03,4.28,20.87,16.18,37.3,32.07,40.89,15.89,3.59,29.64-3.27,29.64-3.27-4.93-7.47-7.29-15.2-7.29-15.2,6.02-4.48,4.55-16.18-8.28-27.04-12.83-10.86-28.49-17.16-28.49-17.16,17.42-6.92,39.74-4.77,36.15-73.4,4.11-43.51,7.01-51.27,14.74-53.64-6.11,14.55-13.68,36.41-6.72,52.24,6.96,15.83,33.44,43.64,33.44,43.64.74,2.41-1.9,5.86-1.9,5.86,9.54,1.83,28.74.71,35.32-7.12,3.4,11.11,5.92,19.32,12.3,19.47,6.39.16,23.62-5.65,30-24.5,6.37-18.85,4.2-27.7,11.04-32.96,6.84-5.26,28.74-25.17,24.39-49.73-4.35-24.55-33.23-58.49-78.02-49.53,8.06-3,31.28-11.69,51.88-4.8,20.6,6.9,29.43-14.29,22.32-30.6-7.11-16.31,18.2-6.1,25.45-8.32,7.24-2.22,19.79-25.08-9.08-40-6.31-3.35-12.04,8.97-21.65,3.46-9.61-5.51-36.13-24.85-55.43-6.8-19.3,18.06-38.57,48.26-38.57,48.26-2.39-19.87-3.11-36.02-12.13-39.6-9.02-3.58-8.31-6.44-4.81-12.26s-14.89-31.36-26.54-38.36c-11.65-7-18.11-10.83-21.59-18.74-7.49-7.21-34.56-4.21-39.3,13.09-4.74,17.3-12.72,17.1-14.51,18.18-1.78,1.07-10.38,12.69-1.04,29.37,9.34,16.68,26.26,23.65,37.17,28.23,10.91,4.58,53.72,11.55,61.24,24.03s9.76,31.87,9.76,31.87c-9.74-19.73-26.33-27.33-36.95-24.07-4.34-5.54-16.74-8.08-22.76-3.6-6.02,4.48-2.92,14.63,1.46,18.57,4.38,3.94,13.47,4.33,13.47,4.33-2.61,8.72-1.86,30.15,15.17,39.2-11.81-.61-11.22,1.32-11.81-.61-2.51-8.21-11.16-14.01-12.08-15.31-6.66-14.86-20.4-73.51-29.27-76.61-8.87-3.09-13.25-7.04-16.84-10.16-3.6-3.12-14.24-12.01-22.65-1.52-8.41,10.5-18.61,3.06-21.65,3.46-3.05.4-13.37,4.62-1.13,13.55,12.24,8.93,4.62,13.37,4.62,13.37,0,0-13.48,2.54-10.82,11.24,4.12,1.38,8.45,13.79,4.73,15.45,9.12,12.53,24.26,20.57,55.92,25.66,28.99,10.14,33.28,17.27,33.28,17.27-20.93-6.27-47.86-2.77-61.35,6.64-13.49,9.41-41.2,44.84-38.27,75.11,1.83,16.34,16.87,15.43,17.2,21.67s-6.03,11.35-4.55,16.18c10.17,2.17,24.8,5.08,15.6,21.63Z"/>
    <path class="cls-1" d="M1197.64,1860.11c-9.02-3.58-56.5-15.45-63.95-24.26-7.45-8.81-15.92-8.86-15.75-22.11.17-13.26,11.39-21.45,11.39-21.45-12.16-12.12-13.79-17.43-13.79-17.43-39.34,14.69-48.89,19.73-42.57,42.09-2.91,7.76-6.5,4.63-16.83,8.85-10.33,4.22-9.54,24.05-9.54,24.05-25.12,14.56-47,46.61-40.93,66.41.31-12.77,23.46-51.03,45.32-43.46,4.67,4.91,3.88,17.83,9.73,26.6,5.86,8.77,22.94,9.35,22.94,9.35-8.25,4.11,2.5,21.95,16.38,22.45,4.41,9.21,6.56,12.78,11.64,13.87,1.7-23.76,23.14-90.02,85.96-84.96Z"/>
    <path class="cls-1" d="M1113.23,1771.61c-7.35-12.8-36.18-45.7-84.46-50.72-48.28-5.02-84.3,17.1-82.96,47.33,1.02,17.12,16.97,14.88,16.97,14.88-8.31-3-10.02-21.49-1.11-20,8.91,1.5,29.26,15.34,40.72,36.39,11.46,21.05,33.71,16.09,53.6,3.39,19.88-12.69,11.79-14.97,57.24-31.26Z"/>
    <path class="cls-1" d="M1138.16,1761.59c-12.16-2.62-55.35-26.36-64.19-92.32,7.63-57.01,27.77-80.08,64.17-75.91,33.32,6.17,17.45,31.1,5.08,30.4,3.64-1.91,12.85-12.39,4.31-16.11-8.54-3.72-35.69,5.91-22.29,19.5,13.41,13.59,32.08,17.64,37.51,33.67,5.44,16.03,3.62,38.25-15.43,68.64-17.21,27.46-9.18,32.13-9.18,32.13Z"/>
    <path class="cls-1" d="M1260.95,1598.54c12.21,20.03,37.67,43.66,37.67,43.66,0,0-16.81,8.05-7.78,14.27,9.03,6.21,22.96-11.26,36.98,3.47,14.02,14.72,22.04,22.83,17.53,37.42-4.51,14.59-4.68,11.47-4.68,11.47,3.74,7.04,9.58,26.12,6.25,31.63-6.74,1.27-14.74-1.56-26.3,10.7-11.56,12.26-31.42,43.16-31.42,43.16-1.43-26.24-19.56-65.58-26.66-72.39-7.1-6.8-32.35-22.84-34.31-30.96-1.96-8.12,13.91-20.11,22.43-12.15,8.51,7.96,7.84,12.65,7.84,12.65-3-4.63-7.13-2.57-6.78-.57s2.37,7.73,9.11,6.45c6.74-1.27,9.34-16.07,5.94-23.74-3.41-7.67-1.71-15.06-1.71-15.06,5.65,7.25,26.71,5.29-4.12-60.01Z"/>
    <path class="cls-1" d="M1269.49,1836c-3.89-4.09-15.79-11.01-29.29-4.24-2.16,3.3-4.5,20.66,2.15,29.45.94-12.44,5.7-27.1,27.14-25.21Z"/>
    <path class="cls-1" d="M1134.75,2000.59c-9.85,20.45-47.88,95.48-67.26,107.22-21.12,7.79-25.7,2.32-32.05,4-6.35,1.68-20.27,8.85-20.87,17.22-3.81-27.09,8.42-59.62,34.58-74.24s75.92-40.15,83.7-54.42c2.1-4.34,1.91.21,1.91.21Z"/>
    <path class="cls-1" d="M1129.97,1993.61c-8.4,7.06-44.9,32.77-57.33,24.95-12.43-7.81-13.79-20.87-1.83-23.21,11.96-2.34,48.82,5.91,59.15-1.74Z"/>
    <path class="cls-1" d="M1111.95,2089.98c-.62,5.74-9.43,71.82,2.72,107.19,9.69,18.69,12.26,21.07,12.26,21.07-16.09-8.54-49.63-37.89-56.09-41.72-6.46-3.83-9.59-2.87-9.59-2.87,1.23-4.6-1.96-8.12-3.41-7.67,16.11-8.63,23.32-25.63,26.13-36.26,2.82-10.63,17.07-34.81,27.98-39.73Z"/>
    <path class="cls-1" d="M1043.87,2253.18c2.14,7,29.17,38.34,38.54,47.36,9.36,9.02,15.74,28.98,4.91,37.58-10.84,8.6-16.48,20.36-7.15,27.54l9.33,7.18c-11.48,2.19-25.47-.39-34.75-6.53s-32.69-5.84-42.58-51.93c-1.68-35.67,2.58-43.31,11.51-52.12-1.68,19.53,3.14,50.8,13.36,60.88-8.85-46.15-7.57-75.59,6.83-69.97Z"/>
    <path class="cls-1" d="M999.32,2300.89c.29,17.34-14.52,54.36-38.23,60.57-24.81,5.22-35.44-4.47-38.59,3.36-3.52-2.88-15.53-24.83,2.48-35.89,18.01-11.06,64.37-15.75,74.34-28.05Z"/>
    <path class="cls-1" d="M813.87,2305.91c-18.78,3.37-83.72,16.39-100.54,5.44s-26.5-10.64-30.51-22.88c-4.01-12.24-7.8-10.82-7.8-10.82,14.12-9.08,53.05-16.51,78.61-.3s46.73,29.27,60.25,28.56Z"/>
    <path class="cls-1" d="M828.63,2293.74c-9.21.97-38.76-5.83-46.13-21.26-.94-3.94,7.26-3.02,6.36-8.55-.9-5.53-.65-12.48-5.52-12.84,10.1-1.51,31.37,4.13,45.28,42.65Z"/>
    <path class="cls-1" d="M1355.65,1993.17c16.31,9.27,34.75,48.78,34.75,48.78.89,2.9,60.71,45.59,136.29,2.63-2.57,7.13-52.57,32.74-69.39,34.72,29.02-.96,52.64-6.61,77.94,26.84,25.3,33.45,17.11,73.99,17.48,88.14.37,14.15,10.44,23.74,10.44,23.74-13.75-6.09-15.35-19.07-22.69-71.49-7.34-52.42-81.02-57.59-81.02-57.59,0,0-64.53-33.06-71.02-42.17-6.49-9.11-14.34-34.17-32.79-53.61Z"/>
    <path class="cls-1" d="M1341.15,2004.47c18.11,20.34,40.03,41.88,48.9,87.23,8.87,45.35,16.86,106.82-26.16,167.27-34.26,48.52-36.31,63.41-36.31,63.41-1.25-36.86-.47-68.79,27.05-92.8,27.51-24.01-1.6-65.75-3.84-74.62-12.15-48.31,35.66-105.2-9.64-150.49Z"/>
    <path class="cls-1" d="M1392.01,2086.88c5.05,12.19,27.11,70.4,19.93,89.24-3.53,26.43-8.99,47.39-31.97,65.51,13.25-25.72,32.54-92.1,12.03-154.75Z"/>
    <path class="cls-1" d="M1346.26,1835.73c24.54,5.96,27.61,10.82,35.58,4.95,7.97-5.87,12.56-20.22,12.56-20.22,19.57-12.86,51.48-7.84,60.15,6.67-5.34-3.65-6.34,4.32-1.73,15.05,4.61,10.74,30.58,13.61,36.24,26.93,5.66,13.32,5.18,26.41,5.18,26.41-7.85-5.78-12.96.8-12.96.8-.71,6.29-12.42,14.63-14.59,11.86-2.18,7.53-9.53,17.18-19.93,4.78-10.4-12.4-10.61,4.58-10.37,5.82,1.35,6.98,9.16,10.93,9.16,10.93-14.68-3.96-28.78-8.62-31.11-1.56-2.33,7.05,2.95,29.47-10.03,27.63-12.98-1.84-23.08-26.21-23.08-26.21,13.34-19.4,21.86-35.18,2.26-65.93-11.69-18.34-37.34-27.92-37.34-27.92Z"/>
    <path class="cls-1" d="M1910.3,1517.93c39.72,10.83,56.33-5.78,93.88,4.33,37.55,10.11,49.11,8.67,69.33,14.44,20.22,5.78,35.39,13.72,31.77,28.89s-14.44,86.66,7.22,106.88,33.94,18.05,41.16,9.39c7.22-8.67,3.61-16.61,3.61-16.61-4.33,2.89-14.44-5.78-11.55-17.33s5.06-33.94,4.33-47.66c-.72-13.72-26-34.66-26-34.66,36.11,21.66,58.49,44.05,67.16,38.27,8.67-5.78,14.44-27.44,18.78-40.44-7.22,2.89-20.22,4.33-20.22-4.33,0-8.67-36.83-42.61-75.1-24.55,45.5-22.39,70.05-29.61,101.1-11.55s72.94,67.16,69.33,116.99-6.5,72.94-23.83,96.05-26.72,38.27-23.11,37.55c17.33,0,21.66-20.22,32.5-36.83,10.83-16.61,9.39-15.17,11.55-23.11,2.17-7.94.72-21.66.72-21.66,6.14-5.42,11.92-16.97,11.92-32.14,0-15.17,2.53-39.36-1.08-55.24,8.3,29.97,19.86,45.13,22.75,48.02s40.08,47.3,77.63,44.41c37.55-2.89,39.36-11.92,46.58-11.19,7.22.72,15.17,1.44,16.25,8.3-3.97-13.36-18.78-15.17-31.77-12.28-13,2.89-50.55,2.89-79.44-26-28.89-28.89-46.58-57.41-50.55-66.44s-37.91-68.24-109.04-80.16c-28.52-3.25-32.5-3.61-26.36-13.36,6.14-9.75,28.16-23.83,36.83-71.49,8.67-47.66,2.89-72.94,2.17-78.71,3.25-14.8,3.61-21.66,22.75-37.19,19.14-15.53-2.89-35.39-13-20.22s-11.55,30.33-16.25,35.02c-4.69,4.69-15.53,6.14-17.69,14.8-2.17,8.67,13.36,24.19,14.44,48.38s-4.33,72.22-33.22,100.38c-28.89,28.16-53.44,29.61-53.44,29.61,29.97-25.64,48.02-42.25,55.61-70.05s5.78-48.38-7.94-62.83c-3.61-7.94-10.47-30.69-1.08-45.13-17.69,10.47-57.77,44.05-46.22,85.94-6.5,13.72-29.61,47.66-80.16,64.99s-116.63,13.36-123.49,7.22c19.14-1.08,79.08-1.81,104.71-27.44,25.64-25.64,25.28-35.39,21.3-48.75-3.97-13.36-1.81-22.03,7.22-26-15.53-11.92-41.88-20.22-67.88,12.28-11.92,16.97-19.86,42.25-31.05,53.44s-20.22,13.72-20.22,13.72c16.61-13.72,25.64-32.14,21.3-48.02s-16.97-24.91-16.97-24.91c-4.33,7.94-10.11,13.72-10.11,13.72-6.86-3.25-16.61,3.61-20.22,20.22-3.61,16.61-1.81,33.58-1.81,33.58-14.44-12.28-23.11-33.22-82.69,2.53-40.8,16.97-49.11,18.05-54.88,12.28,15.89-1.44,39-5.06,49.83-18.78,10.83-13.72,23.11-50.55,23.11-50.55,1.81-1.81,6.14-1.08,6.14-1.08-2.89-9.39-13-26-23.11-28.16,8.3-8.3,14.44-14.44,11.55-20.22-2.89-5.78-16.25-18.41-36.11-15.17s-26.72,9.39-34.66,5.78c-7.94-3.61-36.11-13.72-55.97,1.81-19.86,15.53-36.47,57.41-7.22,93.16-6.5-5.78-25.28-22.39-28.89-44.05-3.61-21.66-26.72-19.5-37.91-5.42-11.19,14.08-14.08-13.36-19.5-18.78s-31.77-5.78-31.41,27.08c0,7.22,13.72,6.5,13.36,17.69-.36,11.19-5.06,44.05,20.22,52.72,25.28,8.67,61.38,11.55,61.38,11.55-16.61,11.55-30.69,19.86-29.61,29.61,1.08,9.75-1.81,10.47-8.67,10.11s-20.94,28.16-21.66,41.88-1.08,21.3-6.5,28.16c-2.89,10.11,12.64,32.86,30.33,28.89,17.69-3.97,21.3,3.25,23.11,4.33s16.25,3.25,26.72-13,8.67-34.66,7.58-46.58c-1.08-11.92-15.17-53.44-7.58-66.08s23.83-23.83,23.83-23.83c-13,18.05-11.92,36.47-3.97,44.41-2.89,6.5.72,18.78,7.58,22.03,6.86,3.25,14.44-4.33,15.89-10.11s-2.53-14.08-2.53-14.08c9.03-1.81,27.8-12.64,27.8-32.14,5.06,10.83,6.5,9.39,5.06,10.83-6.14,6.14-7.22,16.61-7.94,18.05-10.11,13-55.97,53.08-54.52,62.47s0,15.17-1.08,19.86c-1.08,4.69-3.97,18.41,9.39,20.94,13.36,2.53,11.55,15.17,13.36,17.69s10.47,9.75,12.64-5.42,9.75-10.47,9.75-10.47c0,0,8.67,10.83,15.17,4.33-.72-4.33,8.3-14.08,11.55-11.55,6.86-14.08,6.86-31.41-3.61-62.11-4.69-30.69-.36-37.91-.36-37.91,4.33,21.66,20.22,44.05,35.02,51.63,14.8,7.58,59.58,15.53,85.21-1.44,13.72-9.39,5.78-22.39,11.19-25.64,5.42-3.25,13,0,16.61-3.61-2.89-10.11-7.22-24.55,11.92-24.19Z"/>
    <path class="cls-1" d="M1753.23,1542.84c1.08,9.75,13,57.77,8.67,68.6-4.33,10.83-.36,18.41-12.28,24.55-11.92,6.14-24.55,0-24.55,0-5.06,16.61-9.03,20.58-9.03,20.58,31.77,28.16,40.8,34.3,57.77,18.05,8.3-1.08,7.22,3.61,15.89,10.83,8.67,7.22,26-2.89,26-2.89,24.91,15.53,63.91,19.86,78.71,5.06-11.55,5.78-56.69,3.25-60.3-19.86,2.17-6.5,14.08-11.92,19.14-21.3,5.06-9.39-2.53-24.91-2.53-24.91,7.58,5.42,18.41-12.64,12.28-25.28,6.14-8.3,8.3-11.92,6.86-16.97-22.03,9.75-91.35,22.03-116.63-36.47Z"/>
    <path class="cls-1" d="M1714.24,1660.19c-7.94,12.64-23.65,53.98-5.24,99.48,18.41,45.5,55.24,67.16,81.6,51.63,14.8-9.03,5.24-22.21,5.24-22.21,1.26,8.85-14.44,19.14-17.33,10.47s-.18-33.4,13.18-53.62c13.36-20.22-1.62-37.73-22.39-49.47-20.76-11.73-18.96-3.43-55.06-36.29Z"/>
    <path class="cls-1" d="M1693.47,1642.68c3.43,12.1,2.71,61.92-51.99,101.1-54.52,20.22-84.67,13.18-98.21-21.3-10.29-32.68,19.5-30.33,24.73-18.96-3.43-2.35-17.15-5.6-16.43,3.79.72,9.39,22.21,29.07,27.98,10.65,5.78-18.41.54-37.01,12.28-49.47,11.73-12.46,32.44-21.37,68.6-18.78,32.68,2.35,33.04-7.04,33.04-7.04Z"/>
    <path class="cls-1" d="M1489.65,1610.36c12.1-20.4,21.12-54.34,21.12-54.34,0,0,15.17,11.19,16.43.18,1.26-11.01-20.94-15.17-14.44-34.66,6.5-19.5,9.93-30.51,25.09-33.4,15.17-2.89,12.46-1.26,12.46-1.26,4.51-6.68,18.78-20.94,25.28-20.58,4.33,5.42,5.6,13.9,22.03,18.41,16.43,4.51,53.44,7.58,53.44,7.58-22.75,13.72-49.29,48.56-51.99,58.13s-5.06,39.72-11.37,45.32c-6.32,5.6-24.55-2.89-21.48-14.26s7.58-13,7.58-13c-2.71,4.87,1.08,7.58,2.71,6.32s5.78-5.78,1.44-11.19-18.78-.72-24.01,5.96c-5.24,6.68-12.64,8.67-12.64,8.67,3.79-8.49-7.94-26.36-51.63,32.14Z"/>
    <path class="cls-1" d="M1697.63,1490.13c-1.81,5.42-2.35,19.32,10.11,28.16,3.97.36,20.58-5.78,25.28-15.89-11.55,5.06-26.9,7.76-35.39-12.28Z"/>
    <path class="cls-1" d="M1908.49,1532.37c22.93-.9,107.96-2.53,127.64,9.21,16.97,15.17,14.26,21.85,18.78,26.72,4.51,4.87,17.51,13.9,25.28,10.47-22.39,16.25-57.23,20.76-82.69,4.33s-71.85-48.75-88.28-48.93c-4.87.18-.72-1.81-.72-1.81Z"/>
    <path class="cls-1" d="M1904.52,1539.95c10.29,4.15,50.55,24.55,49.47,39.36-1.08,14.8-12.1,22.21-19.86,12.64s-17.87-46.4-29.61-51.99Z"/>
    <path class="cls-1" d="M1999.12,1510.35c5.42-2.17,68.6-25.64,94.42-53.26,12.1-17.51,13-20.94,13-20.94,0,18.41-10.29,62.29-10.65,69.87s1.99,9.93,1.99,9.93c-4.69,1.08-6.32,5.6-5.24,6.68-15.35-10.29-33.94-8.67-44.77-6.14-10.83,2.53-39.18,1.26-48.75-6.14Z"/>
    <path class="cls-1" d="M2177.13,1493.74c5.24-5.24,20.4-44.23,24.01-56.87,3.61-12.64,18.41-27.8,31.23-22.21s26,5.06,27.98-6.68l1.99-11.73c7.4,9.21,11.73,22.93,10.65,34.12-1.08,11.19,10.29,31.96-26.18,62.65-31.05,18.41-39.9,18.23-51.99,14.44,18.23-7.76,43.87-26.9,48.02-40.8-37.01,29.79-63.91,42.61-65.72,27.08Z"/>
    <path class="cls-1" d="M2240.86,1510.89c15.35-8.49,55.43-12.82,72.22,5.42,16.43,19.68,12.82,33.76,21.3,32.86-.9,4.51-14.8,25.64-33.22,14.8-18.41-10.83-44.59-50.01-60.3-53.08Z"/>
    <path class="cls-1" d="M2333.3,1674.09c11.92,15.17,54.34,66.98,52.54,87.2-1.81,20.22,3.07,28.71-5.96,38.09-9.03,9.39-5.96,12.1-5.96,12.1-14.8-8.3-39.9-39.54-37.55-70.05,2.35-30.51,3.97-55.61-3.07-67.34Z"/>
    <path class="cls-1" d="M1460.46,1283.53c-22.98,5.87-53.36,23.49-53.36,23.49,0,0-2.81-18.64-11.49-11.74-8.68,6.89,4.09,25.53-14.3,34.72s-28.6,14.55-41.36,5.87c-12.77-8.68-9.7-7.91-9.7-7.91-7.91,1.53-28.09,1.53-32.43-3.32.77-6.89,5.87-13.79-2.55-28.6s-32.43-43.15-32.43-43.15c25.79,6.38,69.19.51,77.87-4.34s31.66-24.51,40.09-24c8.43.51,15.32,19.4,5.11,25.28s-14.55,3.83-14.55,3.83c5.36-1.53,4.6-6.13,2.55-6.38s-8.17,0-8.94,6.89,12.77,13.79,21.19,12.77,15.06,2.81,15.06,2.81c-8.68,3.32-13.02,24.26,59.23,13.79Z"/>
    <path class="cls-1" d="M2315.43,1666.69c5.24,7.76,13.18,37.37,2.89,51.27-3.07,2.71-6.14-5.06-10.65-1.62s-10.83,6.5-8.85,11.01c-6.14-8.3-11.19-29.97,16.61-60.66Z"/>
    <path class="cls-1" d="M1797.1,1338.66c.54-18.96,27.08-54.16,27.08-54.16,2.17-2.17,11.92-75.83-62.29-122.95,7.58-1.08,54.16,31.41,63.91,45.5-14.62-25.46-30.87-43.87-13-82.33,17.87-38.45,57.95-50.37,70.41-57.41s16.25-20.58,16.25-20.58c1.08,15.17-9.75,22.75-53.08,54.16-43.33,31.41-13,99.66-13,99.66,0,0,1.08,73.3-3.97,83.41-5.06,10.11-23.71,29.01-32.32,54.7Z"/>
    <path class="cls-1" d="M1814.07,1346.24c9.57-25.82,18.41-55.61,54.7-85.03,36.29-29.43,87.38-65.72,161.76-55.97,59.58,7.58,73.84,2.35,73.84,2.35-32.32,18.6-61.2,33.04-95.69,19.86-34.48-13.18-57.95,32.62-64.81,38.82-37.37,33.76-110.85,18.05-129.81,79.98Z"/>
    <path class="cls-1" d="M1863.54,1261.75c8.49-10.29,50.01-57.59,70.23-60.12,25.28-9.39,46.58-14.44,73.66-2.53-29.25.36-97.67,14.62-143.89,62.65Z"/>
    <path class="cls-1" d="M1660.98,1421.7c-6.32-24.73-3.43-29.79-12.46-34.12s-24.01-1.62-24.01-1.62c-20.76-11.37-31.41-42.25-22.57-56.87-.72,6.5,6.86,3.61,14.26-5.6,7.4-9.21-2.35-33.76,6.86-45.13,9.21-11.37,21.12-17.15,21.12-17.15-1.44,9.75,6.86,11.19,6.86,11.19,5.96-2.35,18.96,4.15,17.51,7.4,7.76-1.62,19.86.36,13.72,15.53-6.14,15.17,9.12,7.3,10.11,6.5,5.6-4.51,5.42-13.36,5.42-13.36,3.43,14.98,5.96,29.79,13.36,28.52,7.4-1.26,24.91-16.61,29.43-4.15s-12.46,33.04-12.46,33.04c-23.65-2.71-41.78-2.83-59.94,29.25-10.83,19.14-7.22,46.58-7.22,46.58Z"/>
    <path class="cls-1" d="M1334.5,978.75c-39.72-10.83-56.33,5.78-93.88-4.33-37.55-10.11-49.11-8.67-69.33-14.44-20.22-5.78-35.39-13.72-31.77-28.89,3.61-15.17,14.44-86.66-7.22-106.88-21.66-20.22-33.94-18.05-41.16-9.39-7.22,8.67-3.61,16.61-3.61,16.61,4.33-2.89,14.44,5.78,11.55,17.33-2.89,11.55-5.06,33.94-4.33,47.66.72,13.72,26,34.66,26,34.66-36.11-21.66-58.49-44.05-67.16-38.27-8.67,5.78-14.44,27.44-18.78,40.44,7.22-2.89,20.22-4.33,20.22,4.33s36.83,42.61,75.1,24.55c-45.5,22.39-70.05,29.61-101.1,11.55s-72.94-67.16-69.33-116.99,6.5-72.94,23.83-96.05,26.72-38.27,23.11-37.55c-17.33,0-21.66,20.22-32.5,36.83-10.83,16.61-9.39,15.17-11.55,23.11s-.72,21.66-.72,21.66c-6.14,5.42-11.92,16.97-11.92,32.14,0,15.17-2.53,39.36,1.08,55.24-8.3-29.97-19.86-45.13-22.75-48.02s-40.08-47.3-77.63-44.41c-37.55,2.89-39.36,11.92-46.58,11.19-7.22-.72-15.17-1.44-16.25-8.3,3.97,13.36,18.78,15.17,31.77,12.28,13-2.89,50.55-2.89,79.44,26s46.58,57.41,50.55,66.44,37.91,68.24,109.04,80.16c28.52,3.25,32.5,3.61,26.36,13.36s-28.16,23.83-36.83,71.49c-8.67,47.66-2.89,72.94-2.17,78.71-3.25,14.8-3.61,21.66-22.75,37.19s2.89,35.39,13,20.22,11.55-30.33,16.25-35.02,15.53-6.14,17.69-14.8-13.36-24.19-14.44-48.38,4.33-72.22,33.22-100.38c28.89-28.16,53.44-29.61,53.44-29.61-29.97,25.64-48.02,42.25-55.61,70.05-7.58,27.8-5.78,48.38,7.94,62.83,3.61,7.94,10.47,30.69,1.08,45.13,17.69-10.47,57.77-44.05,46.22-85.94,6.5-13.72,29.61-47.66,80.16-64.99,50.55-17.33,116.63-13.36,123.49-7.22-19.14,1.08-79.08,1.81-104.71,27.44-25.64,25.64-25.28,35.39-21.3,48.75,3.97,13.36,1.81,22.03-7.22,26,15.53,11.92,41.88,20.22,67.88-12.28,11.92-16.97,19.86-42.25,31.05-53.44s20.22-13.72,20.22-13.72c-16.61,13.72-25.64,32.14-21.3,48.02s16.97,24.91,16.97,24.91c4.33-7.94,10.11-13.72,10.11-13.72,6.86,3.25,16.61-3.61,20.22-20.22,3.61-16.61,1.81-33.58,1.81-33.58,14.44,12.28,23.11,33.22,82.69-2.53,40.8-16.97,49.11-18.05,54.88-12.28-15.89,1.44-39,5.06-49.83,18.78-10.83,13.72-23.11,50.55-23.11,50.55-1.81,1.81-6.14,1.08-6.14,1.08,2.89,9.39,13,26,23.11,28.16-8.3,8.3-14.44,14.44-11.55,20.22,2.89,5.78,16.25,18.41,36.11,15.17s26.72-9.39,34.66-5.78c7.94,3.61,36.11,13.72,55.97-1.81,19.86-15.53,36.47-57.41,7.22-93.16,6.5,5.78,25.28,22.39,28.89,44.05,3.61,21.66,26.72,19.5,37.91,5.42,11.19-14.08,14.08,13.36,19.5,18.78s31.77,5.78,31.41-27.08c0-7.22-13.72-6.5-13.36-17.69.36-11.19,5.06-44.05-20.22-52.72-25.28-8.67-61.38-11.55-61.38-11.55,16.61-11.55,30.69-19.86,29.61-29.61-1.08-9.75,1.81-10.47,8.67-10.11s20.94-28.16,21.66-41.88,1.08-21.3,6.5-28.16c2.89-10.11-12.64-32.86-30.33-28.89-17.69,3.97-21.3-3.25-23.11-4.33s-16.25-3.25-26.72,13-8.67,34.66-7.58,46.58c1.08,11.92,15.17,53.44,7.58,66.08s-23.83,23.83-23.83,23.83c13-18.05,11.92-36.47,3.97-44.41,2.89-6.5-.72-18.78-7.58-22.03-6.86-3.25-14.44,4.33-15.89,10.11s2.53,14.08,2.53,14.08c-9.03,1.81-27.8,12.64-27.8,32.14-5.06-10.83-6.5-9.39-5.06-10.83,6.14-6.14,7.22-16.61,7.94-18.05,10.11-13,55.97-53.08,54.52-62.47s0-15.17,1.08-19.86c1.08-4.69,3.97-18.41-9.39-20.94-13.36-2.53-11.55-15.17-13.36-17.69s-10.47-9.75-12.64,5.42-9.75,10.47-9.75,10.47c0,0-8.67-10.83-15.17-4.33.72,4.33-8.3,14.08-11.55,11.55-6.86,14.08-6.86,31.41,3.61,62.11,4.69,30.69.36,37.91.36,37.91-4.33-21.66-20.22-44.05-35.02-51.63-14.8-7.58-59.58-15.53-85.21,1.44-13.72,9.39-5.78,22.39-11.19,25.64-5.42,3.25-13,0-16.61,3.61,2.89,10.11,7.22,24.55-11.92,24.19Z"/>
    <path class="cls-1" d="M1551.33,854c-3.43-12.1-2.71-61.92,51.99-101.1,54.52-20.22,84.67-13.18,98.21,21.3,10.29,32.68-19.5,30.33-24.73,18.96,3.43,2.35,17.15,5.6,16.43-3.79-.72-9.39-22.21-29.07-27.98-10.65-5.78,18.41-.54,37.01-12.28,49.47-11.73,12.46-32.44,21.37-68.6,18.78-32.68-2.35-33.04,7.04-33.04,7.04Z"/>
    <path class="cls-1" d="M1755.15,886.31c-12.1,20.4-21.12,54.34-21.12,54.34,0,0-15.17-11.19-16.43-.18-1.26,11.01,20.94,15.17,14.44,34.66-6.5,19.5-9.93,30.51-25.09,33.4-15.17,2.89-12.46,1.26-12.46,1.26-4.51,6.68-18.78,20.94-25.28,20.58-4.33-5.42-5.6-13.9-22.03-18.41-16.43-4.51-53.44-7.58-53.44-7.58,22.75-13.72,49.29-48.56,51.99-58.13s5.06-39.72,11.37-45.32c6.32-5.6,24.55,2.89,21.48,14.26s-7.58,13-7.58,13c2.71-4.87-1.08-7.58-2.71-6.32s-5.78,5.78-1.44,11.19,18.78.72,24.01-5.96c5.24-6.68,12.64-8.67,12.64-8.67-3.79,8.49,7.94,26.36,51.63-32.14Z"/>
    <path class="cls-1" d="M1583.82,1074.98c6.32,24.73,3.43,29.79,12.46,34.12s24.01,1.62,24.01,1.62c20.76,11.37,31.41,42.25,22.57,56.87.72-6.5-6.86-3.61-14.26,5.6-7.4,9.21,2.35,33.76-6.86,45.13-9.21,11.37-21.12,17.15-21.12,17.15,1.44-9.75-6.86-11.19-6.86-11.19-5.96,2.35-18.96-4.15-17.51-7.4-7.76,1.62-19.86-.36-13.72-15.53,6.14-15.17-9.12-7.3-10.11-6.5-5.6,4.51-5.42,13.36-5.42,13.36-3.43-14.98-5.96-29.79-13.36-28.52-7.4,1.26-24.91,16.61-29.43,4.15s12.46-33.04,12.46-33.04c23.65,2.71,41.78,2.83,59.94-29.25,10.83-19.14,7.22-46.58,7.22-46.58Z"/>
    <path class="cls-1" d="M456.34,547.16c10.83-39.72-5.78-56.33,4.33-93.88,10.11-37.55,8.67-49.11,14.44-69.33,5.78-20.22,13.72-35.39,28.89-31.77,15.17,3.61,86.66,14.44,106.88-7.22,20.22-21.66,18.05-33.94,9.39-41.16-8.67-7.22-16.61-3.61-16.61-3.61,2.89,4.33-5.78,14.44-17.33,11.55-11.55-2.89-33.94-5.06-47.66-4.33-13.72.72-34.66,26-34.66,26,21.66-36.11,44.05-58.49,38.27-67.16-5.78-8.67-27.44-14.44-40.44-18.78,2.89,7.22,4.33,20.22-4.33,20.22s-42.61,36.83-24.55,75.1c-22.39-45.5-29.61-70.05-11.55-101.1s67.16-72.94,116.99-69.33,72.94,6.5,96.05,23.83,38.27,26.72,37.55,23.11c0-17.33-20.22-21.66-36.83-32.5-16.61-10.83-15.17-9.39-23.11-11.55s-21.66-.72-21.66-.72c-5.42-6.14-16.97-11.92-32.14-11.92-15.17,0-39.36-2.53-55.24,1.08,29.97-8.3,45.13-19.86,48.02-22.75s47.3-40.08,44.41-77.63c-2.89-37.55-11.92-39.36-11.19-46.58.72-7.22,1.44-15.17,8.3-16.25-13.36,3.97-15.17,18.78-12.28,31.77,2.89,13,2.89,50.55-26,79.44s-57.41,46.58-66.44,50.55-68.24,37.91-80.16,109.04c-3.25,28.52-3.61,32.5-13.36,26.36s-23.83-28.16-71.49-36.83c-47.66-8.67-72.94-2.89-78.71-2.17-14.8-3.25-21.66-3.61-37.19-22.75s-35.39,2.89-20.22,13,30.33,11.55,35.02,16.25,6.14,15.53,14.8,17.69,24.19-13.36,48.38-14.44,72.22,4.33,100.38,33.22c28.16,28.89,29.61,53.44,29.61,53.44-25.64-29.97-42.25-48.02-70.05-55.61-27.8-7.58-48.38-5.78-62.83,7.94-7.94,3.61-30.69,10.47-45.13,1.08,10.47,17.69,44.05,57.77,85.94,46.22,13.72,6.5,47.66,29.61,64.99,80.16,17.33,50.55,13.36,116.63,7.22,123.49-1.08-19.14-1.81-79.08-27.44-104.71-25.64-25.64-35.39-25.28-48.75-21.3-13.36,3.97-22.03,1.81-26-7.22-11.92,15.53-20.22,41.88,12.28,67.88,16.97,11.92,42.25,19.86,53.44,31.05s13.72,20.22,13.72,20.22c-13.72-16.61-32.14-25.64-48.02-21.3s-24.91,16.97-24.91,16.97c7.94,4.33,13.72,10.11,13.72,10.11-3.25,6.86,3.61,16.61,20.22,20.22,16.61,3.61,33.58,1.81,33.58,1.81-12.28,14.44-33.22,23.11,2.53,82.69,16.97,40.8,18.05,49.11,12.28,54.88-1.44-15.89-5.06-39-18.78-49.83-13.72-10.83-50.55-23.11-50.55-23.11-1.81-1.81-1.08-6.14-1.08-6.14-9.39,2.89-26,13-28.16,23.11-8.3-8.3-14.44-14.44-20.22-11.55-5.78,2.89-18.41,16.25-15.17,36.11s9.39,26.72,5.78,34.66c-3.61,7.94-13.72,36.11,1.81,55.97,15.53,19.86,57.41,36.47,93.16,7.22-5.78,6.5-22.39,25.28-44.05,28.89-21.66,3.61-19.5,26.72-5.42,37.91,14.08,11.19-13.36,14.08-18.78,19.5s-5.78,31.77,27.08,31.41c7.22,0,6.5-13.72,17.69-13.36,11.19.36,44.05,5.06,52.72-20.22,8.67-25.28,11.55-61.38,11.55-61.38,11.55,16.61,19.86,30.69,29.61,29.61,9.75-1.08,10.47,1.81,10.11,8.67s28.16,20.94,41.88,21.66,21.3,1.08,28.16,6.5c10.11,2.89,32.86-12.64,28.89-30.33-3.97-17.69,3.25-21.3,4.33-23.11s3.25-16.25-13-26.72-34.66-8.67-46.58-7.58c-11.92,1.08-53.44,15.17-66.08,7.58s-23.83-23.83-23.83-23.83c18.05,13,36.47,11.92,44.41,3.97,6.5,2.89,18.78-.72,22.03-7.58,3.25-6.86-4.33-14.44-10.11-15.89s-14.08,2.53-14.08,2.53c-1.81-9.03-12.64-27.8-32.14-27.8,10.83-5.06,9.39-6.5,10.83-5.06,6.14,6.14,16.61,7.22,18.05,7.94,13,10.11,53.08,55.97,62.47,54.52s15.17,0,19.86,1.08c4.69,1.08,18.41,3.97,20.94-9.39,2.53-13.36,15.17-11.55,17.69-13.36s9.75-10.47-5.42-12.64-10.47-9.75-10.47-9.75c0,0,10.83-8.67,4.33-15.17-4.33.72-14.08-8.3-11.55-11.55-14.08-6.86-31.41-6.86-62.11,3.61-30.69,4.69-37.91.36-37.91.36,21.66-4.33,44.05-20.22,51.63-35.02,7.58-14.8,15.53-59.58-1.44-85.21-9.39-13.72-22.39-5.78-25.64-11.19-3.25-5.42,0-13-3.61-16.61-10.11,2.89-24.55,7.22-24.19-11.92Z"/>
    <path class="cls-1" d="M581.09,763.99c12.1-3.43,61.92-2.71,101.1,51.99,20.22,54.52,13.18,84.67-21.3,98.21-32.68,10.29-30.33-19.5-18.96-24.73-2.35,3.43-5.6,17.15,3.79,16.43,9.39-.72,29.07-22.21,10.65-27.98-18.41-5.78-37.01-.54-49.47-12.28-12.46-11.73-21.37-32.44-18.78-68.6,2.35-32.68-7.04-33.04-7.04-33.04Z"/>
    <path class="cls-1" d="M548.77,967.82c-20.4-12.1-54.34-21.12-54.34-21.12,0,0,11.19-15.17.18-16.43-11.01-1.26-15.17,20.94-34.66,14.44-19.5-6.5-30.51-9.93-33.4-25.09-2.89-15.17-1.26-12.46-1.26-12.46-6.68-4.51-20.94-18.78-20.58-25.28,5.42-4.33,13.9-5.6,18.41-22.03,4.51-16.43,7.58-53.44,7.58-53.44,13.72,22.75,48.56,49.29,58.13,51.99s39.72,5.06,45.32,11.37c5.6,6.32-2.89,24.55-14.26,21.48s-13-7.58-13-7.58c4.87,2.71,7.58-1.08,6.32-2.71s-5.78-5.78-11.19-1.44-.72,18.78,5.96,24.01c6.68,5.24,8.67,12.64,8.67,12.64-8.49-3.79-26.36,7.94,32.14,51.63Z"/>
    <path class="cls-1" d="M360.11,796.49c-24.73,6.32-29.79,3.43-34.12,12.46s-1.62,24.01-1.62,24.01c-11.37,20.76-42.25,31.41-56.87,22.57,6.5.72,3.61-6.86-5.6-14.26-9.21-7.4-33.76,2.35-45.13-6.86-11.37-9.21-17.15-21.12-17.15-21.12,9.75,1.44,11.19-6.86,11.19-6.86-2.35-5.96,4.15-18.96,7.4-17.51-1.62-7.76.36-19.86,15.53-13.72,15.17,6.14,7.3-9.12,6.5-10.11-4.51-5.6-13.36-5.42-13.36-5.42,14.98-3.43,29.79-5.96,28.52-13.36-1.26-7.4-16.61-24.91-4.15-29.43s33.04,12.46,33.04,12.46c-2.71,23.65-2.83,41.78,29.25,59.94,19.14,10.83,46.58,7.22,46.58,7.22Z"/>
    <path class="cls-1" d="M2077.06,612.52c-10.83-39.72,5.78-56.33-4.33-93.88-10.11-37.55-8.67-49.11-14.44-69.33-5.78-20.22-13.72-35.39-28.89-31.77-15.17,3.61-86.66,14.44-106.88-7.22-20.22-21.66-18.05-33.94-9.39-41.16,8.67-7.22,16.61-3.61,16.61-3.61-2.89,4.33,5.78,14.44,17.33,11.55,11.55-2.89,33.94-5.06,47.66-4.33,13.72.72,34.66,26,34.66,26-21.66-36.11-44.05-58.49-38.27-67.16,5.78-8.67,27.44-14.44,40.44-18.78-2.89,7.22-4.33,20.22,4.33,20.22s42.61,36.83,24.55,75.1c22.39-45.5,29.61-70.05,11.55-101.1-18.05-31.05-67.16-72.94-116.99-69.33-49.83,3.61-72.94,6.5-96.05,23.83-23.11,17.33-38.27,26.72-37.55,23.11,0-17.33,20.22-21.66,36.83-32.5,16.61-10.83,15.17-9.39,23.11-11.55,7.94-2.17,21.66-.72,21.66-.72,5.42-6.14,16.97-11.92,32.14-11.92,15.17,0,39.36-2.53,55.24,1.08-29.97-8.3-45.13-19.86-48.02-22.75-2.89-2.89-47.3-40.08-44.41-77.63,2.89-37.55,11.92-39.36,11.19-46.58-.72-7.22-1.44-15.17-8.3-16.25,13.36,3.97,15.17,18.78,12.28,31.77-2.89,13-2.89,50.55,26,79.44s57.41,46.58,66.44,50.55,68.24,37.91,80.16,109.04c3.25,28.52,3.61,32.5,13.36,26.36,9.75-6.14,23.83-28.16,71.49-36.83,47.66-8.67,72.94-2.89,78.71-2.17,14.8-3.25,21.66-3.61,37.19-22.75,15.53-19.14,35.39,2.89,20.22,13-15.17,10.11-30.33,11.55-35.02,16.25-4.69,4.69-6.14,15.53-14.8,17.69s-24.19-13.36-48.38-14.44-72.22,4.33-100.38,33.22c-28.16,28.89-29.61,53.44-29.61,53.44,25.64-29.97,42.25-48.02,70.05-55.61,27.8-7.58,48.38-5.78,62.83,7.94,7.94,3.61,30.69,10.47,45.13,1.08-10.47,17.69-44.05,57.77-85.94,46.22-13.72,6.5-47.66,29.61-64.99,80.16-17.33,50.55-13.36,116.63-7.22,123.49,1.08-19.14,1.81-79.08,27.44-104.71,25.64-25.64,35.39-25.28,48.75-21.3,13.36,3.97,22.03,1.81,26-7.22,11.92,15.53,20.22,41.88-12.28,67.88-16.97,11.92-42.25,19.86-53.44,31.05-11.19,11.19-13.72,20.22-13.72,20.22,13.72-16.61,32.14-25.64,48.02-21.3s24.91,16.97,24.91,16.97c-7.94,4.33-13.72,10.11-13.72,10.11,3.25,6.86-3.61,16.61-20.22,20.22-16.61,3.61-33.58,1.81-33.58,1.81,12.28,14.44,33.22,23.11-2.53,82.69-16.97,40.8-18.05,49.11-12.28,54.88,1.44-15.89,5.06-39,18.78-49.83,13.72-10.83,50.55-23.11,50.55-23.11,1.81-1.81,1.08-6.14,1.08-6.14,9.39,2.89,26,13,28.16,23.11,8.3-8.3,14.44-14.44,20.22-11.55,5.78,2.89,18.41,16.25,15.17,36.11s-9.39,26.72-5.78,34.66c3.61,7.94,13.72,36.11-1.81,55.97-15.53,19.86-57.41,36.47-93.16,7.22,5.78,6.5,22.39,25.28,44.05,28.89,21.66,3.61,19.5,26.72,5.42,37.91-14.08,11.19,13.36,14.08,18.78,19.5s5.78,31.77-27.08,31.41c-7.22,0-6.5-13.72-17.69-13.36-11.19.36-44.05,5.06-52.72-20.22-8.67-25.28-11.55-61.38-11.55-61.38-11.55,16.61-19.86,30.69-29.61,29.61-9.75-1.08-10.47,1.81-10.11,8.67.36,6.86-28.16,20.94-41.88,21.66-13.72.72-21.3,1.08-28.16,6.5-10.11,2.89-32.86-12.64-28.89-30.33,3.97-17.69-3.25-21.3-4.33-23.11s-3.25-16.25,13-26.72,34.66-8.67,46.58-7.58c11.92,1.08,53.44,15.17,66.08,7.58,12.64-7.58,23.83-23.83,23.83-23.83-18.05,13-36.47,11.92-44.41,3.97-6.5,2.89-18.78-.72-22.03-7.58-3.25-6.86,4.33-14.44,10.11-15.89s14.08,2.53,14.08,2.53c1.81-9.03,12.64-27.8,32.14-27.8-10.83-5.06-9.39-6.5-10.83-5.06-6.14,6.14-16.61,7.22-18.05,7.94-13,10.11-53.08,55.97-62.47,54.52s-15.17,0-19.86,1.08c-4.69,1.08-18.41,3.97-20.94-9.39-2.53-13.36-15.17-11.55-17.69-13.36s-9.75-10.47,5.42-12.64,10.47-9.75,10.47-9.75c0,0-10.83-8.67-4.33-15.17,4.33.72,14.08-8.3,11.55-11.55,14.08-6.86,31.41-6.86,62.11,3.61,30.69,4.69,37.91.36,37.91.36-21.66-4.33-44.05-20.22-51.63-35.02s-15.53-59.58,1.44-85.21c9.39-13.72,22.39-5.78,25.64-11.19s0-13,3.61-16.61c10.11,2.89,24.55,7.22,24.19-11.92Z"/>
    <path class="cls-1" d="M1952.31,829.35c-12.1-3.43-61.92-2.71-101.1,51.99-20.22,54.52-13.18,84.67,21.3,98.21,32.68,10.29,30.33-19.5,18.96-24.73,2.35,3.43,5.6,17.15-3.79,16.43-9.39-.72-29.07-22.21-10.65-27.98,18.41-5.78,37.01-.54,49.47-12.28,12.46-11.73,21.37-32.44,18.78-68.6-2.35-32.68,7.04-33.04,7.04-33.04Z"/>
    <path class="cls-1" d="M1984.63,1033.18c20.4-12.1,54.34-21.12,54.34-21.12,0,0-11.19-15.17-.18-16.43,11.01-1.26,15.17,20.94,34.66,14.44,19.5-6.5,30.51-9.93,33.4-25.09,2.89-15.17,1.26-12.46,1.26-12.46,6.68-4.51,20.94-18.78,20.58-25.28-5.42-4.33-13.9-5.6-18.41-22.03-4.51-16.43-7.58-53.44-7.58-53.44-13.72,22.75-48.56,49.29-58.13,51.99s-39.72,5.06-45.32,11.37c-5.6,6.32,2.89,24.55,14.26,21.48,11.37-3.07,13-7.58,13-7.58-4.87,2.71-7.58-1.08-6.32-2.71s5.78-5.78,11.19-1.44.72,18.78-5.96,24.01c-6.68,5.24-8.67,12.64-8.67,12.64,8.49-3.79,26.36,7.94-32.14,51.63Z"/>
    <path class="cls-1" d="M2173.29,861.85c24.73,6.32,29.79,3.43,34.12,12.46s1.62,24.01,1.62,24.01c11.37,20.76,42.25,31.41,56.87,22.57-6.5.72-3.61-6.86,5.6-14.26s33.76,2.35,45.13-6.86c11.37-9.21,17.15-21.12,17.15-21.12-9.75,1.44-11.19-6.86-11.19-6.86,2.35-5.96-4.15-18.96-7.4-17.51,1.62-7.76-.36-19.86-15.53-13.72-15.17,6.14-7.3-9.12-6.5-10.11,4.51-5.6,13.36-5.42,13.36-5.42-14.98-3.43-29.79-5.96-28.52-13.36,1.26-7.4,16.61-24.91,4.15-29.43s-33.04,12.46-33.04,12.46c2.71,23.65,2.83,41.78-29.25,59.94-19.14,10.83-46.58,7.22-46.58,7.22Z"/>
  </g>
</svg>